<svg width="48" height="48" viewBox="0 0 48 48" fill="none" xmlns="http://www.w3.org/2000/svg">
<rect width="48" height="48" rx="24" fill="#C5F2EC"/>
<g clip-path="url(#clip0_357_39348)">
<path d="M22.9644 15.9333H15.9644C15.4339 15.9333 14.9252 16.1441 14.5501 16.5191C14.1751 16.8942 13.9644 17.4029 13.9644 17.9333V31.9333C13.9644 32.4638 14.1751 32.9725 14.5501 33.3476C14.9252 33.7226 15.4339 33.9333 15.9644 33.9333H29.9644C30.4948 33.9333 31.0035 33.7226 31.3786 33.3476C31.7536 32.9725 31.9644 32.4638 31.9644 31.9333V24.9333" stroke="black" stroke-width="2" stroke-linecap="round" stroke-linejoin="round"/>
<path d="M30.4644 14.4333C30.8622 14.0355 31.4017 13.812 31.9644 13.812C32.527 13.812 33.0665 14.0355 33.4644 14.4333C33.8622 14.8312 34.0857 15.3707 34.0857 15.9333C34.0857 16.4959 33.8622 17.0355 33.4644 17.4333L23.9644 26.9333L19.9644 27.9333L20.9644 23.9333L30.4644 14.4333Z" stroke="black" stroke-width="2" stroke-linecap="round" stroke-linejoin="round"/>
</g>
<defs>
<clipPath id="clip0_357_39348">
<rect width="24" height="24" fill="white" transform="translate(11.9644 11.9333)"/>
</clipPath>
</defs>
</svg>
