<svg width="32" height="32" viewBox="0 0 32 32" fill="none" xmlns="http://www.w3.org/2000/svg">
<rect width="32" height="32" rx="16" fill="#F5F5F5"/>
<g clip-path="url(#clip0_1_13800)">
<path d="M16.3887 8.29599V22.9627" stroke="black" stroke-width="1.5" stroke-linecap="round" stroke-linejoin="round"/>
<path d="M19.722 10.9627H14.722C14.1032 10.9627 13.5097 11.2085 13.0721 11.6461C12.6345 12.0837 12.3887 12.6772 12.3887 13.296C12.3887 13.9148 12.6345 14.5083 13.0721 14.9459C13.5097 15.3835 14.1032 15.6293 14.722 15.6293H18.0553C18.6742 15.6293 19.2677 15.8752 19.7053 16.3128C20.1428 16.7503 20.3887 17.3438 20.3887 17.9627C20.3887 18.5815 20.1428 19.175 19.7053 19.6126C19.2677 20.0502 18.6742 20.296 18.0553 20.296H12.3887" stroke="black" stroke-width="1.5" stroke-linecap="round" stroke-linejoin="round"/>
</g>
<defs>
<clipPath id="clip0_1_13800">
<rect width="16" height="16" fill="white" transform="translate(8.38867 7.62933)"/>
</clipPath>
</defs>
</svg>
