<svg width="24" height="25" viewBox="0 0 24 25" fill="none" xmlns="http://www.w3.org/2000/svg">
<g clip-path="url(#clip0_52_26527)">
<path fill-rule="evenodd" clip-rule="evenodd" d="M11.9998 14.2061L17.6568 19.8631C17.8454 20.0453 18.098 20.1461 18.3602 20.1438C18.6224 20.1415 18.8732 20.0364 19.0586 19.851C19.2441 19.6656 19.3492 19.4147 19.3515 19.1525C19.3538 18.8903 19.253 18.6377 19.0708 18.4491L13.4138 12.7921L19.0708 7.13514C19.253 6.94654 19.3538 6.69394 19.3515 6.43174C19.3492 6.16954 19.2441 5.91873 19.0586 5.73332C18.8732 5.54792 18.6224 5.44275 18.3602 5.44047C18.098 5.43819 17.8454 5.53898 17.6568 5.72114L11.9998 11.3781L6.34282 5.72114C6.15337 5.54349 5.90224 5.44651 5.64255 5.45072C5.38287 5.45494 5.13502 5.56002 4.95143 5.74374C4.76785 5.92745 4.66294 6.17538 4.65891 6.43506C4.65488 6.69475 4.75203 6.94582 4.92982 7.13514L10.5858 12.7921L4.92882 18.4491C4.83331 18.5414 4.75713 18.6517 4.70472 18.7737C4.65231 18.8957 4.62473 19.027 4.62357 19.1597C4.62242 19.2925 4.64772 19.4242 4.698 19.5471C4.74828 19.67 4.82254 19.7816 4.91643 19.8755C5.01032 19.9694 5.12197 20.0437 5.24487 20.094C5.36777 20.1442 5.49944 20.1695 5.63222 20.1684C5.765 20.1672 5.89622 20.1397 6.01823 20.0872C6.14023 20.0348 6.25058 19.9587 6.34282 19.8631L11.9998 14.2061Z" fill="#01002F"/>
</g>
<defs>
<clipPath id="clip0_52_26527">
<rect width="24" height="24" fill="white" transform="translate(0 0.792114)"/>
</clipPath>
</defs>
</svg>
