<svg width="16" height="16" viewBox="0 0 16 16" fill="none" xmlns="http://www.w3.org/2000/svg">
<path d="M9.3335 5.33334H2.66683C1.9315 5.33334 1.3335 5.93134 1.3335 6.66667V13.3333C1.3335 14.0687 1.9315 14.6667 2.66683 14.6667H9.3335C10.0688 14.6667 10.6668 14.0687 10.6668 13.3333V6.66667C10.6668 5.93134 10.0688 5.33334 9.3335 5.33334Z" fill="black"/>
<path d="M13.3335 1.33334H6.66683C6.31321 1.33334 5.97407 1.47381 5.72402 1.72386C5.47397 1.97391 5.3335 2.31305 5.3335 2.66667V4H10.6668C11.0205 4 11.3596 4.14048 11.6096 4.39053C11.8597 4.64058 12.0002 4.97971 12.0002 5.33334V10.6667H13.3335C13.6871 10.6667 14.0263 10.5262 14.2763 10.2761C14.5264 10.0261 14.6668 9.68696 14.6668 9.33334V2.66667C14.6668 2.31305 14.5264 1.97391 14.2763 1.72386C14.0263 1.47381 13.6871 1.33334 13.3335 1.33334Z" fill="black"/>
</svg>
