<svg width="24" height="25" viewBox="0 0 24 25" fill="none" xmlns="http://www.w3.org/2000/svg">
<path d="M11.9998 11.71C12.6417 11.71 13.1915 11.4816 13.6491 11.0248C14.1066 10.568 14.335 10.0182 14.3342 9.37549C14.3335 8.73273 14.1051 8.18335 13.6491 7.72735C13.1931 7.27135 12.6433 7.04257 11.9998 7.04102C11.3562 7.03946 10.8068 7.26824 10.3516 7.72735C9.8964 8.18646 9.66762 8.73584 9.66528 9.37549C9.66295 10.0151 9.89173 10.5649 10.3516 11.0248C10.8115 11.4847 11.3609 11.7131 11.9998 11.71ZM6.16357 23.3823V21.0479H10.8325V17.4294C9.87928 17.2154 9.02836 16.812 8.27977 16.219C7.53119 15.626 6.98142 14.8817 6.63047 13.9861C5.17142 13.811 3.95088 13.1741 2.96885 12.0753C1.98681 10.9765 1.49541 9.68753 1.49463 8.20825V7.04102C1.49463 6.39904 1.72341 5.84966 2.18096 5.39288C2.63852 4.9361 3.1879 4.70732 3.8291 4.70654H6.16357V2.37207H17.8359V4.70654H20.1704C20.8124 4.70654 21.3622 4.93532 21.8197 5.39288C22.2773 5.85043 22.5057 6.39981 22.5049 7.04102V8.20825C22.5049 9.68675 22.0135 10.9758 21.0307 12.0753C20.0478 13.1748 18.8273 13.8118 17.369 13.9861C17.0189 14.881 16.4695 15.6253 15.7209 16.219C14.9723 16.8127 14.121 17.2162 13.167 17.4294V21.0479H17.8359V23.3823H6.16357ZM6.16357 11.4765V7.04102H3.8291V8.20825C3.8291 8.9475 4.0431 9.61399 4.47108 10.2077C4.89907 10.8015 5.46323 11.2244 6.16357 11.4765ZM17.8359 11.4765C18.5363 11.2236 19.1004 10.8003 19.5284 10.2066C19.9564 9.61283 20.1704 8.94672 20.1704 8.20825V7.04102H17.8359V11.4765Z" fill="#EB5B00"/>
</svg>
