<svg width="16" height="16" viewBox="0 0 16 16" fill="none" xmlns="http://www.w3.org/2000/svg">
<path d="M13.4998 4.00018V9.68331C13.4998 12.5708 11.1966 14.9677 8.31226 14.9996C7.61221 15.009 6.91737 14.8779 6.26893 14.6139C5.62049 14.3499 5.03164 13.9584 4.53727 13.4627C3.17414 12.0208 1.63414 8.50018 1.63414 8.50018C1.5664 8.38294 1.52317 8.25317 1.50709 8.11872C1.491 7.98428 1.50238 7.84797 1.54054 7.71806C1.5787 7.58814 1.64285 7.46733 1.72909 7.36295C1.81534 7.25857 1.92188 7.17279 2.04227 7.11081C2.52102 6.86081 3.11102 7.05831 3.37977 7.52456L4.69227 9.80206C4.72877 9.86763 4.78384 9.92095 4.85057 9.95532C4.91729 9.98968 4.99268 10.0035 5.06727 9.99518H5.07476C5.19487 9.97451 5.30366 9.91166 5.38156 9.81795C5.45947 9.72423 5.50138 9.60579 5.49977 9.48393V3.00018C5.49961 2.86471 5.52698 2.73062 5.58022 2.60605C5.63345 2.48147 5.71145 2.36902 5.80946 2.2755C5.90748 2.18199 6.02348 2.10936 6.15041 2.06203C6.27735 2.0147 6.41258 1.99366 6.54789 2.00018C7.08601 2.02518 7.49976 2.48893 7.49976 3.02706V7.00018C7.49961 7.06873 7.51356 7.13657 7.54073 7.1995C7.5679 7.26242 7.60773 7.31909 7.65772 7.36598C7.70772 7.41287 7.76682 7.44898 7.83136 7.47207C7.8959 7.49515 7.9645 7.50472 8.03289 7.50018C8.16146 7.48914 8.28109 7.42982 8.3677 7.33416C8.45432 7.2385 8.5015 7.11359 8.49976 6.98456V2.00018C8.49961 1.86471 8.52698 1.73062 8.58022 1.60605C8.63345 1.48147 8.71145 1.36902 8.80946 1.2755C8.90748 1.18199 9.02348 1.10936 9.15041 1.06203C9.27735 1.0147 9.41258 0.993663 9.54789 1.00018C10.086 1.02518 10.4998 1.48893 10.4998 2.02706V7.50018C10.4996 7.56873 10.5136 7.63657 10.5407 7.6995C10.5679 7.76242 10.6077 7.81909 10.6577 7.86598C10.7077 7.91287 10.7668 7.94898 10.8314 7.97207C10.8959 7.99515 10.9645 8.00472 11.0329 8.00018C11.1615 7.98914 11.2811 7.92982 11.3677 7.83416C11.4543 7.7385 11.5015 7.61359 11.4998 7.48456V4.02831C11.4998 3.49018 11.9135 3.02831 12.4516 3.00143C12.5868 2.99492 12.722 3.01592 12.8488 3.06317C12.9757 3.11042 13.0916 3.18294 13.1896 3.27632C13.2876 3.3697 13.3656 3.48201 13.4189 3.60644C13.4723 3.73086 13.4998 3.86482 13.4998 4.00018Z" fill="#227AFF"/>
</svg>
