<svg width="32" height="33" viewBox="0 0 32 33" fill="none" xmlns="http://www.w3.org/2000/svg">
<g clip-path="url(#clip0_87_4651)">
<path fill-rule="evenodd" clip-rule="evenodd" d="M15.9998 3.25535C23.3638 3.25535 29.3332 9.22468 29.3332 16.5887C29.3332 23.9527 23.3638 29.922 15.9998 29.922C8.63584 29.922 2.6665 23.9527 2.6665 16.5887C2.6665 9.22468 8.63584 3.25535 15.9998 3.25535ZM21.9998 14.5887C21.4694 14.5887 20.9607 14.7994 20.5856 15.1745C20.2106 15.5495 19.9998 16.0583 19.9998 16.5887C19.9998 17.1191 20.2106 17.6278 20.5856 18.0029C20.9607 18.378 21.4694 18.5887 21.9998 18.5887C22.5303 18.5887 23.039 18.378 23.414 18.0029C23.7891 17.6278 23.9998 17.1191 23.9998 16.5887C23.9998 16.0583 23.7891 15.5495 23.414 15.1745C23.039 14.7994 22.5303 14.5887 21.9998 14.5887ZM15.9998 14.5887C15.4694 14.5887 14.9607 14.7994 14.5856 15.1745C14.2106 15.5495 13.9998 16.0583 13.9998 16.5887C13.9998 17.1191 14.2106 17.6278 14.5856 18.0029C14.9607 18.378 15.4694 18.5887 15.9998 18.5887C16.5303 18.5887 17.039 18.378 17.4141 18.0029C17.7891 17.6278 17.9998 17.1191 17.9998 16.5887C17.9998 16.0583 17.7891 15.5495 17.4141 15.1745C17.039 14.7994 16.5303 14.5887 15.9998 14.5887ZM9.99984 14.5887C9.4694 14.5887 8.9607 14.7994 8.58562 15.1745C8.21055 15.5495 7.99984 16.0583 7.99984 16.5887C7.99984 17.1191 8.21055 17.6278 8.58562 18.0029C8.9607 18.378 9.4694 18.5887 9.99984 18.5887C10.5303 18.5887 11.039 18.378 11.4141 18.0029C11.7891 17.6278 11.9998 17.1191 11.9998 16.5887C11.9998 16.0583 11.7891 15.5495 11.4141 15.1745C11.039 14.7994 10.5303 14.5887 9.99984 14.5887Z" fill="#848698"/>
</g>
<defs>
<clipPath id="clip0_87_4651">
<rect width="32" height="32" fill="white" transform="translate(0 0.588684)"/>
</clipPath>
</defs>
</svg>
