<svg width="16" height="16" viewBox="0 0 16 16" fill="none" xmlns="http://www.w3.org/2000/svg">
<path d="M3.75 6.5C3.6837 6.5 3.62011 6.52634 3.57322 6.57322C3.52634 6.62011 3.5 6.6837 3.5 6.75V13.25C3.5 13.388 3.612 13.5 3.75 13.5H12.25C12.3163 13.5 12.3799 13.4737 12.4268 13.4268C12.4737 13.3799 12.5 13.3163 12.5 13.25V6.75C12.5 6.6837 12.4737 6.62011 12.4268 6.57322C12.3799 6.52634 12.3163 6.5 12.25 6.5H11.25C11.0511 6.5 10.8603 6.42098 10.7197 6.28033C10.579 6.13968 10.5 5.94891 10.5 5.75C10.5 5.55109 10.579 5.36032 10.7197 5.21967C10.8603 5.07902 11.0511 5 11.25 5H12.25C13.216 5 14 5.784 14 6.75V13.25C14 13.7141 13.8156 14.1592 13.4874 14.4874C13.1592 14.8156 12.7141 15 12.25 15H3.75C3.28587 15 2.84075 14.8156 2.51256 14.4874C2.18437 14.1592 2 13.7141 2 13.25V6.75C2 5.784 2.784 5 3.75 5H4.75C4.94891 5 5.13968 5.07902 5.28033 5.21967C5.42098 5.36032 5.5 5.55109 5.5 5.75C5.5 5.94891 5.42098 6.13968 5.28033 6.28033C5.13968 6.42098 4.94891 6.5 4.75 6.5H3.75ZM7.823 0.177001C7.84622 0.153719 7.87381 0.135248 7.90418 0.122644C7.93456 0.110041 7.96712 0.103554 8 0.103554C8.03288 0.103554 8.06544 0.110041 8.09582 0.122644C8.12619 0.135248 8.15378 0.153719 8.177 0.177001L11.073 3.073C11.1081 3.10797 11.1319 3.15255 11.1416 3.20111C11.1513 3.24966 11.1464 3.3 11.1274 3.34573C11.1084 3.39147 11.0763 3.43055 11.0351 3.45801C10.9939 3.48548 10.9455 3.50009 10.896 3.5H8.75V9.25C8.75 9.44891 8.67098 9.63968 8.53033 9.78033C8.38968 9.92098 8.19891 10 8 10C7.80109 10 7.61032 9.92098 7.46967 9.78033C7.32902 9.63968 7.25 9.44891 7.25 9.25V3.5H5.104C5.05449 3.50009 5.00607 3.48548 4.96487 3.45801C4.92368 3.43055 4.89157 3.39147 4.87261 3.34573C4.85365 3.3 4.8487 3.24966 4.85838 3.20111C4.86806 3.15255 4.89195 3.10797 4.927 3.073L7.823 0.177001Z" fill="#FAB216"/>
</svg>
