<svg width="48" height="49" viewBox="0 0 48 49" fill="none" xmlns="http://www.w3.org/2000/svg">
<g clip-path="url(#clip0_94_7925)">
<circle cx="24" cy="24.3377" r="23.5" stroke="#848698"/>
<path d="M30 25.3357H18C17.7348 25.3357 17.4804 25.2304 17.2929 25.0428C17.1054 24.8553 17 24.6009 17 24.3357C17 24.0705 17.1054 23.8162 17.2929 23.6286C17.4804 23.4411 17.7348 23.3357 18 23.3357H30C30.2652 23.3357 30.5196 23.4411 30.7071 23.6286C30.8946 23.8162 31 24.0705 31 24.3357C31 24.6009 30.8946 24.8553 30.7071 25.0428C30.5196 25.2304 30.2652 25.3357 30 25.3357Z" fill="black"/>
</g>
<defs>
<clipPath id="clip0_94_7925">
<rect width="48" height="48" fill="white" transform="translate(0 0.337723)"/>
</clipPath>
</defs>
</svg>
