<svg width="132" height="119" viewBox="0 0 132 119" fill="none" xmlns="http://www.w3.org/2000/svg">
<g clip-path="url(#clip0_526_59346)">
<path d="M63.2248 30.0351C62.4147 29.9706 61.723 30.05 61.1618 30.1903C60.0393 30.471 59.4009 31.0199 59.4009 31.0199C59.3006 31.1079 59.2397 31.2318 59.2314 31.3644C59.2232 31.4969 59.2683 31.6273 59.3569 31.7269C59.4455 31.8264 59.5703 31.887 59.7038 31.8952C59.8374 31.9034 59.9686 31.8585 60.0689 31.7706C60.0689 31.7706 60.4859 31.3927 61.4081 31.1621C62.3302 30.9315 63.7187 30.8727 65.6044 31.6656C65.6654 31.6913 65.7309 31.7047 65.7972 31.7053C65.8635 31.7058 65.9292 31.6933 65.9906 31.6686C66.0521 31.6439 66.1079 31.6074 66.1552 31.5613C66.2024 31.5151 66.24 31.4601 66.2658 31.3995C66.2917 31.3389 66.3052 31.2738 66.3057 31.208C66.3063 31.1422 66.2938 31.077 66.269 31.016C66.2441 30.955 66.2072 30.8995 66.1607 30.8526C66.1142 30.8057 66.0589 30.7684 65.9979 30.7427C64.9633 30.3077 64.0349 30.0996 63.2248 30.0351Z" fill="black"/>
<path d="M56.9185 47.8583C56.8523 47.8575 56.7866 47.8697 56.7251 47.8942C56.6636 47.9186 56.6075 47.9549 56.5601 48.0009C56.5127 48.0468 56.4748 48.1016 56.4488 48.1621C56.4227 48.2226 56.409 48.2875 56.4082 48.3533C56.4082 48.3533 56.4082 48.6041 56.5008 48.9227C56.5919 49.2413 56.7726 49.6677 57.1215 50.1312C57.8194 51.0582 59.18 52.118 61.7717 52.8489C61.8354 52.8669 61.9021 52.8723 61.9679 52.8647C62.0337 52.8571 62.0975 52.8367 62.1554 52.8046C62.2133 52.7726 62.2642 52.7296 62.3053 52.6779C62.3465 52.6263 62.3769 52.5672 62.395 52.5039C62.4131 52.4406 62.4186 52.3744 62.4109 52.309C62.4033 52.2436 62.3828 52.1804 62.3505 52.1229C62.3182 52.0655 62.2749 52.0149 62.2229 51.974C62.1709 51.9332 62.1113 51.9029 62.0475 51.885C59.6117 51.198 58.4739 50.2543 57.93 49.5318C57.6581 49.1706 57.5319 48.8607 57.4716 48.6494C57.4112 48.4381 57.4171 48.3651 57.4171 48.3651C57.4178 48.2993 57.4056 48.234 57.3809 48.1729C57.3563 48.1119 57.3198 48.0562 57.2735 48.0092C57.2273 47.9621 57.1721 47.9246 57.1112 47.8987C57.0502 47.8728 56.9848 47.8591 56.9185 47.8583Z" fill="black"/>
<path fill-rule="evenodd" clip-rule="evenodd" d="M63.3034 39.1035C63.2411 39.4933 63.134 39.8721 62.9884 40.2183C62.8427 40.5645 62.6613 40.8714 62.4545 41.1214C62.2476 41.3713 62.0194 41.5595 61.7828 41.6752C61.5462 41.7908 61.3058 41.8317 61.0755 41.7954C60.6103 41.7222 60.2142 41.3392 59.9741 40.7308C59.7341 40.1224 59.6698 39.3383 59.7955 38.5512C59.9212 37.764 60.2267 37.0381 60.6445 36.5333C61.0623 36.0285 61.5583 35.786 62.0235 35.8592C62.2538 35.8955 62.4697 36.0082 62.6586 36.1909C62.8476 36.3735 63.0059 36.6226 63.1248 36.9238C63.2436 37.2251 63.3205 37.5726 63.3512 37.9466C63.3818 38.3206 63.3656 38.7137 63.3034 39.1035Z" fill="black"/>
<path d="M71.6551 50.9901C71.5901 50.9773 71.5232 50.9773 71.4583 50.9902C71.3933 51.0031 71.3314 51.0285 71.2763 51.0651C71.2212 51.1017 71.174 51.1487 71.1372 51.2034C71.1005 51.2581 71.0749 51.3195 71.062 51.3841C70.4665 54.3678 69.0751 56.4377 67.2223 57.8336C65.3696 59.2296 63.0352 59.9477 60.5564 60.1215C55.5988 60.4692 50.0937 58.5958 47.0656 55.9012C47.0163 55.8572 46.9587 55.8233 46.8961 55.8015C46.8336 55.7796 46.7674 55.7702 46.7012 55.7738C46.6351 55.7773 46.5702 55.7938 46.5104 55.8223C46.4507 55.8507 46.3972 55.8906 46.353 55.9396C46.2638 56.0386 46.218 56.1686 46.2254 56.3012C46.2328 56.4338 46.2928 56.558 46.3924 56.6466C49.6932 59.5839 55.3694 61.4894 60.6273 61.1207C63.2563 60.9363 65.7878 60.1724 67.8325 58.6319C69.8772 57.0913 71.4149 54.7709 72.0518 51.5791C72.0648 51.5145 72.0648 51.4481 72.0518 51.3836C72.0389 51.319 72.0132 51.2577 71.9763 51.203C71.9395 51.1483 71.8922 51.1013 71.8371 51.0648C71.782 51.0283 71.7201 51.0029 71.6551 50.9901Z" fill="black"/>
<path d="M53.5721 0.533102C50.8335 0.411467 47.7793 0.619701 44.3749 1.2466C41.878 1.70652 36.81 3.29241 31.9816 7.08896C27.1532 10.8855 22.5882 16.9124 21.2277 26.15V26.1507C21.044 27.4048 20.7233 31.1578 22.0362 35.6388C23.3491 40.1198 26.3168 45.3208 32.6568 49.3512C33.3089 49.766 34.2565 50.0075 35.3569 50.0562C36.4574 50.1049 37.7054 49.9451 38.9004 49.4588C41.2904 48.4861 43.4193 46.1293 43.4508 41.8125C43.4514 41.7151 43.4233 41.6196 43.3701 41.5377C43.3169 41.4559 43.2409 41.3912 43.1512 41.3516C43.0616 41.312 42.9624 41.2993 42.8655 41.3148C42.7687 41.3304 42.6785 41.3737 42.6061 41.4394C42.6061 41.4394 41.6099 42.3285 40.2869 42.6916C38.9639 43.0548 37.4092 42.9856 35.91 40.8753C35.7772 40.6881 35.511 40.1473 35.2709 39.4241C35.0308 38.701 34.7993 37.7794 34.6541 36.7514C34.3638 34.6954 34.4243 32.2196 35.4016 30.0025C35.5918 29.5708 36.4574 27.9084 37.4994 27.414C38.0204 27.1668 38.5433 27.126 39.2866 27.6116C40.0299 28.0971 40.9581 29.1777 41.971 31.1784C42.4264 32.0775 42.9532 33.9945 44.0347 35.4014C44.5754 36.1048 45.2875 36.6997 46.2205 36.9171C47.1535 37.1345 48.2568 36.9596 49.5308 36.2897C51.3726 35.3206 53.0154 33.0021 54.7386 30.8282C56.4619 28.6543 58.2545 26.6645 59.8578 26.2557C61.4092 25.8596 67.0423 24.5827 72.9919 29.3301V29.3308C73.252 29.5382 73.6362 29.5756 73.9226 29.4782C74.2091 29.3808 74.4389 29.198 74.6596 28.9695C75.101 28.5125 75.5068 27.8398 75.8602 27.0201C76.567 25.3806 77.0426 23.159 76.6517 21.0786C76.3727 19.5877 75.18 13.3754 70.5959 8.15143C67.1578 4.23346 61.7855 0.898048 53.5695 0.533142L53.5721 0.533102ZM53.5255 1.51987C61.4863 1.85411 66.5527 5.06557 69.838 8.80945C74.2184 13.8013 75.386 19.7875 75.6619 21.2618C76.0006 23.0646 75.5733 25.1436 74.9341 26.6261C74.6146 27.3673 74.2369 27.961 73.9325 28.2762C73.7803 28.4337 73.6464 28.5139 73.5975 28.5305C67.343 23.5581 61.235 24.8704 59.6075 25.2858C57.4679 25.8314 55.6854 28.015 53.9465 30.2086C52.2077 32.4022 50.5022 34.645 49.0586 35.4046C47.9302 35.9978 47.0991 36.0931 46.451 35.942C45.8029 35.791 45.2871 35.3796 44.8366 34.7935C43.9357 33.6214 43.4289 31.8275 42.8721 30.7284C41.8152 28.6406 40.8246 27.4167 39.8409 26.7741C38.8573 26.1316 37.8448 26.1395 37.064 26.51C35.5023 27.251 34.6969 29.1012 34.4768 29.6008C33.396 32.0527 33.3462 34.7074 33.6545 36.8903C33.8086 37.9818 34.0533 38.9569 34.3126 39.7378C34.5719 40.5187 34.8277 41.0897 35.085 41.4524C36.7838 43.8437 38.9537 44.0972 40.5555 43.6575C41.2879 43.4565 41.9016 43.1314 42.3736 42.8364C42.0602 46.1271 40.4013 47.7653 38.5175 48.532C37.4804 48.9541 36.368 49.0979 35.4009 49.0551C34.4339 49.0123 33.6071 48.7669 33.2 48.5079C27.0705 44.6113 24.2624 39.6527 23.0044 35.359C21.7465 31.0658 22.0593 27.4293 22.2254 26.2954V26.2948C23.5485 17.3122 27.9427 11.5422 32.6075 7.87418C37.2725 4.20613 42.2327 2.65972 44.5581 2.2314C47.8963 1.61669 50.8713 1.40844 53.5249 1.51985L53.5255 1.51987Z" fill="black"/>
<path fill-rule="evenodd" clip-rule="evenodd" d="M42.9465 41.809C42.9465 41.809 38.6959 45.6655 35.4978 41.1639C34.7177 40.0639 32.8816 34.4704 34.9397 29.8015C35.35 28.8702 38.2824 22.7764 42.4221 30.9535C43.4343 32.9517 44.4902 38.374 49.2957 35.8472C52.5812 34.1184 55.9911 26.725 59.734 25.7707C61.3246 25.3646 67.2028 24.067 73.3097 28.9399C74.3522 29.7714 76.8879 25.0534 76.1581 21.1702C75.6032 18.205 71.4366 -3.22725 44.4665 1.7392C39.6442 2.62743 24.4106 8.00228 21.7271 26.2228C21.3773 28.6104 20.4593 41.0026 32.9287 48.9296C35.0473 50.2773 42.886 50.1304 42.9465 41.809Z" fill="black"/>
<path d="M80.4905 60.8885C78.3945 60.9821 77.0107 61.4037 77.0107 61.4037C76.9441 61.4242 76.8826 61.4583 76.8299 61.5036C76.7772 61.549 76.7345 61.6047 76.7046 61.6672C69.1052 77.5649 66.7409 93.8119 66.7409 93.8119C66.7217 93.9434 66.7559 94.077 66.8359 94.1834C66.916 94.2898 67.0354 94.3603 67.1678 94.3793C67.3002 94.3983 67.4347 94.3643 67.5418 94.2848C67.649 94.2053 67.72 94.0868 67.7392 93.9554C67.7392 93.9554 70.0832 77.9771 77.5204 62.3155C78.1129 62.1412 86.6816 59.7646 93.0236 67.2624C93.3299 67.6251 93.7293 68.2184 93.8131 69.9905C93.8969 71.7626 93.6205 74.6692 92.4883 79.4454C90.8347 86.4388 87.6487 99.5263 75.2432 106.29C74.0474 106.943 71.5031 107.669 68.2121 107.995C64.9211 108.32 60.8637 108.264 56.5407 107.446C47.8945 105.81 38.1946 101.145 31.2694 90.3533C31.1975 90.2414 31.0838 90.1623 30.9533 90.1336C30.8227 90.1049 30.6859 90.1287 30.5731 90.2001C30.4604 90.2714 30.3807 90.3843 30.3518 90.514C30.3228 90.6436 30.347 90.7794 30.4188 90.8914C37.5031 101.931 47.4947 106.754 56.3522 108.43C60.7809 109.268 64.9286 109.326 68.3119 108.991C71.6953 108.657 74.2947 107.95 75.7286 107.168C88.5509 100.177 91.8149 86.6757 93.4703 79.6749V79.6743C94.6147 74.8462 94.9117 71.8672 94.8207 69.9429C94.7296 68.0185 94.2067 67.1044 93.7967 66.6186V66.618C89.4563 61.4866 83.9844 60.7325 80.4911 60.8885L80.4905 60.8885Z" fill="black"/>
<path d="M42.1934 61.1637C35.885 60.9946 27.9434 63.6012 20.7086 73.1074C15.5441 79.8896 5.56406 98.2425 0.515684 117.875C0.48261 118.004 0.502287 118.14 0.570528 118.255C0.638768 118.369 0.749961 118.452 0.879555 118.484C1.00916 118.517 1.14661 118.498 1.26165 118.43C1.37669 118.362 1.4599 118.252 1.49301 118.123C6.49956 98.6529 16.5016 80.2934 21.5131 73.712V73.7113C30.9475 61.3152 41.2855 61.0835 47.5654 63.0603C53.6857 64.9863 58.7684 71.4729 62.2647 77.5227C65.7611 83.5726 67.6834 89.1279 67.6834 89.1279C67.7049 89.1901 67.7385 89.2475 67.7824 89.2968C67.8263 89.3461 67.8795 89.3864 67.939 89.4153C67.9986 89.4442 68.0632 89.4611 68.1294 89.4652C68.1955 89.4693 68.2618 89.4604 68.3244 89.439C68.4509 89.3957 68.5548 89.3043 68.6134 89.185C68.6721 89.0656 68.6806 88.928 68.6371 88.8024C68.6371 88.8024 66.6892 83.1658 63.1396 77.0238C59.5899 70.8818 54.4513 64.1765 47.8701 62.1055C46.2168 61.5851 44.2955 61.2201 42.1927 61.1637L42.1934 61.1637Z" fill="black"/>
<path d="M36.4533 50.3856C36.3327 50.443 36.2399 50.5455 36.1955 50.6708C36.151 50.796 36.1584 50.9336 36.2161 51.0534C36.2161 51.0534 36.975 52.6225 36.917 54.9307C36.8589 57.239 35.9979 60.2423 32.6096 63.1301C32.5593 63.1729 32.5181 63.2252 32.4881 63.2839C32.4582 63.3425 32.4401 63.4065 32.4351 63.4721C32.43 63.5377 32.438 63.6036 32.4586 63.6661C32.4792 63.7286 32.512 63.7865 32.5551 63.8364C32.6423 63.9372 32.7662 63.9994 32.8996 64.0095C33.033 64.0195 33.165 63.9765 33.2664 63.8899C36.856 60.8306 37.8619 57.4976 37.9258 54.9562C37.9897 52.4147 37.1258 50.6204 37.1258 50.6204C37.0679 50.5007 36.9646 50.4088 36.8385 50.3648C36.7124 50.3207 36.5738 50.3282 36.4533 50.3856Z" fill="black"/>
<path d="M83.82 55.35C80.5061 55.3484 77.9652 56.3531 77.9652 56.3531C77.8736 56.3893 77.7946 56.4513 77.7381 56.5315C77.6817 56.6117 77.6501 56.7066 77.6473 56.8044C77.6386 57.1133 77.5481 58.3681 77.4608 59.5032C77.3735 60.6384 77.2887 61.6842 77.2887 61.6842C77.278 61.8166 77.3207 61.9478 77.4074 62.0489C77.4942 62.1501 77.6178 62.2129 77.7511 62.2235C77.8845 62.2341 78.0166 62.1917 78.1184 62.1056C78.2203 62.0195 78.2836 61.8968 78.2943 61.7644C78.2943 61.7644 78.3795 60.7172 78.467 59.5795C78.5429 58.5928 78.6039 57.7219 78.6306 57.1971C79.018 57.0542 80.9993 56.3503 83.8194 56.3518C86.9285 56.3535 90.7041 57.2674 93.6183 61.0163V61.017C93.8539 61.3196 94.1733 61.8025 94.2777 62.8203C94.382 63.8381 94.2478 65.3892 93.4711 67.7222C93.4292 67.8483 93.4394 67.9857 93.4995 68.1044C93.5596 68.223 93.6647 68.3131 93.7917 68.3548C93.8546 68.3755 93.9209 68.3837 93.9871 68.379C94.0532 68.3742 94.1178 68.3565 94.177 68.3269C94.2363 68.2974 94.2891 68.2565 94.3324 68.2067C94.3757 68.1569 94.4086 68.0991 94.4294 68.0365C95.2368 65.6111 95.4048 63.9236 95.2813 62.7192C95.1579 61.5154 94.7193 60.793 94.4169 60.4046V60.4039C91.2915 56.3837 87.1344 55.3518 83.8207 55.35H83.82Z" fill="black"/>
<path d="M86.9032 28.7131C86.2028 28.7643 85.5429 29.1259 85.1154 29.6745C83.3118 31.9885 82.5742 35.4613 82.2399 38.3676C81.9057 41.2738 82.0008 43.6321 82.0008 43.6321C82.0034 43.6978 82.019 43.7624 82.0468 43.8221C82.0745 43.8819 82.1139 43.9356 82.1625 43.9802C82.2112 44.0249 82.2684 44.0595 82.3305 44.0823C82.3927 44.105 82.4587 44.1154 82.5249 44.1127C82.6585 44.1073 82.7845 44.0494 82.8752 43.9519C82.9658 43.8543 83.0137 43.7249 83.0083 43.5923C83.0083 43.5923 82.9173 41.3054 83.2422 38.481C83.567 35.6566 84.334 32.3138 85.9134 30.2875C86.145 29.9903 86.6102 29.7391 86.9774 29.7123C87.3442 29.6855 87.5629 29.7488 87.715 30.2027C87.7913 30.4328 87.7901 30.9676 87.6736 31.6356C87.5573 32.3036 87.3492 33.1113 87.1219 33.9711C86.6675 35.6908 86.1295 37.6083 86.1295 39.2278C86.1295 39.6628 86.1083 41.1453 86.209 42.7464C86.3097 44.3475 86.496 46.0519 87.0635 47.1435C87.2018 47.4096 87.3993 47.605 87.6533 47.8635C87.9073 48.122 88.2163 48.4173 88.5472 48.7479C89.209 49.4091 89.9564 50.2131 90.4868 51.0749C91.017 51.9367 91.3208 52.8323 91.1856 53.7228C91.0504 54.6133 90.4833 55.5673 89.0516 56.5651C88.9974 56.6029 88.9511 56.6509 88.9155 56.7064C88.8799 56.7619 88.8557 56.8238 88.8442 56.8886C88.8328 56.9534 88.8343 57.0198 88.8487 57.0841C88.8631 57.1483 88.8901 57.2091 88.9281 57.2629C88.9662 57.3168 89.0146 57.3626 89.0705 57.3979C89.1264 57.4332 89.1888 57.4572 89.2541 57.4685C89.3194 57.4798 89.3863 57.4783 89.451 57.4639C89.5156 57.4496 89.5767 57.4227 89.6309 57.3849C91.2124 56.2827 92.0004 55.0769 92.1833 53.8722C92.3662 52.6674 91.9512 51.5331 91.3478 50.5525C90.7444 49.572 89.943 48.7216 89.2625 48.0416C88.9222 47.7016 88.6113 47.404 88.3751 47.1637C88.1389 46.9234 87.9756 46.7136 87.96 46.6837C87.5658 45.9253 87.3136 44.2378 87.2159 42.6838C87.1181 41.1298 87.1384 39.6937 87.1384 39.2278C87.1384 37.8377 87.6419 35.9513 88.0979 34.2255C88.326 33.3626 88.5401 32.5372 88.6674 31.8065C88.7947 31.0758 88.8577 30.4457 88.6735 29.8897C88.6735 29.8892 88.6735 29.8888 88.6735 29.8883C88.3952 29.055 87.6037 28.6619 86.9032 28.7131Z" fill="black"/>
<path d="M85.3678 27.8288C84.7356 27.7765 84.2127 28.0312 83.8617 28.3877C81.5618 30.7174 80.3 34.6046 79.5576 37.9182C78.8153 41.2319 78.6204 43.9921 78.6204 43.9921C78.6157 44.0578 78.6242 44.1237 78.6452 44.1861C78.6662 44.2485 78.6994 44.3062 78.7429 44.3559C78.7864 44.4056 78.8394 44.4462 78.8987 44.4756C78.958 44.5049 79.0226 44.5224 79.0887 44.5269C79.222 44.5361 79.3535 44.4923 79.4544 44.4052C79.5552 44.3182 79.6172 44.1949 79.6266 44.0625C79.6266 44.0625 79.8175 41.3703 80.5422 38.1354C81.2669 34.9006 82.5541 31.1432 84.5822 29.0888V29.0881C84.655 29.0142 85.0848 28.8102 85.2837 28.8266C85.3832 28.8348 85.4111 28.8484 85.4564 28.9094C85.5018 28.9705 85.5734 29.1334 85.5602 29.4814C85.5577 29.5472 85.5683 29.6127 85.5912 29.6744C85.6142 29.7361 85.6492 29.7927 85.6942 29.841C85.7392 29.8893 85.7933 29.9283 85.8535 29.9558C85.9137 29.9833 85.9787 29.9987 86.0449 30.0012C86.1111 30.0037 86.1772 29.9931 86.2393 29.9702C86.3014 29.9473 86.3583 29.9125 86.4068 29.8677C86.4554 29.823 86.4947 29.7692 86.5223 29.7094C86.5499 29.6496 86.5653 29.585 86.5677 29.5192C86.5866 29.0271 86.4962 28.6214 86.2682 28.3146C86.0403 28.0079 85.6834 27.8549 85.3671 27.8288L85.3678 27.8288Z" fill="black"/>
<path d="M81.3127 29.4586C81.0502 29.5104 80.7986 29.6129 80.5686 29.7416C79.5027 30.3402 78.7358 31.5735 78.0812 33.0561C77.4266 34.5386 76.9063 36.2929 76.497 37.9801C75.6786 41.3546 75.3082 44.4701 75.3082 44.4701C75.3004 44.5355 75.3056 44.6017 75.3236 44.665C75.3416 44.7284 75.3721 44.7876 75.4131 44.8392C75.4542 44.8909 75.505 44.934 75.5629 44.9661C75.6207 44.9983 75.6844 45.0188 75.7502 45.0264C75.816 45.0342 75.8828 45.0289 75.9466 45.0111C76.0104 44.9932 76.0699 44.963 76.122 44.9222C76.174 44.8815 76.2174 44.8309 76.2497 44.7735C76.2821 44.7161 76.3027 44.6529 76.3105 44.5875C76.3105 44.5875 76.6767 41.5198 77.4783 38.2149C77.8791 36.5625 78.3897 34.8528 79.0054 33.4585C79.6208 32.0646 80.3633 31.0084 81.0644 30.6142C81.3442 30.4576 81.6989 30.4019 81.8625 30.4453C81.9443 30.467 81.9777 30.4912 82.0142 30.5445C82.0506 30.5977 82.0954 30.7047 82.091 30.9208C82.0897 30.9866 82.1015 31.0519 82.1257 31.1132C82.1498 31.1745 82.1858 31.2304 82.2318 31.2778C82.2777 31.3253 82.3326 31.3632 82.3933 31.3896C82.454 31.416 82.5194 31.4302 82.5856 31.4314C82.7193 31.4341 82.8486 31.3839 82.945 31.2919C83.0415 31.1999 83.0971 31.0737 83.0999 30.941C83.1073 30.5739 83.0283 30.243 82.849 29.981C82.6697 29.719 82.396 29.55 82.1226 29.4775C81.8492 29.405 81.5759 29.4067 81.3134 29.4586L81.3127 29.4586Z" fill="black"/>
<path d="M78.4866 31.0656C78.3346 31.0629 78.1867 31.0859 78.0479 31.1223C77.4925 31.2678 77.0172 31.6089 76.7192 32.0478C75.554 33.755 74.5914 36.431 73.8864 38.8437C73.5338 40.0501 73.25 41.187 73.0522 42.0948C72.8545 43.0027 72.739 43.6313 72.7317 44.0182V44.0188C72.6766 47.315 73.3426 50.1714 74.201 51.6606C74.677 52.4894 75.8728 53.6791 76.9963 54.769C78.1202 55.8591 79.1461 56.7797 79.1461 56.7797C79.1952 56.8238 79.2526 56.8579 79.315 56.88C79.3775 56.902 79.4438 56.9117 79.5099 56.9084C79.5761 56.905 79.6409 56.8888 79.7007 56.8605C79.7606 56.8323 79.8143 56.7926 79.8587 56.7438C79.9482 56.6453 79.9947 56.5154 79.9879 56.3829C79.9812 56.2503 79.9217 56.1259 79.8226 56.0368C79.8226 56.0368 78.8092 55.1264 77.7018 54.0522C76.5944 52.978 75.3675 51.6705 75.0765 51.1636V51.163C74.3946 49.9801 73.688 47.181 73.7406 44.0358C73.7439 43.8882 73.8464 43.1898 74.0387 42.3068C74.2312 41.4235 74.5095 40.3055 74.8552 39.1228C75.5464 36.7574 76.524 34.1185 77.5546 32.6087V32.608C77.6736 32.4328 78.0439 32.159 78.304 32.0908C78.4341 32.0567 78.5188 32.0695 78.5471 32.0817C78.5753 32.0939 78.5985 32.091 78.6403 32.2311C78.6592 32.2941 78.6902 32.3529 78.732 32.4041C78.7737 32.4552 78.8253 32.4976 78.8835 32.529C78.9418 32.5604 79.0056 32.5801 79.0715 32.5869C79.1374 32.5937 79.2041 32.5876 79.2676 32.5689C79.3311 32.5502 79.3903 32.5192 79.4418 32.4778C79.4933 32.4364 79.536 32.3853 79.5676 32.3275C79.5992 32.2696 79.619 32.2062 79.6259 32.1407C79.6328 32.0753 79.6267 32.0091 79.6078 31.946C79.5017 31.5909 79.2547 31.2939 78.9477 31.1621C78.7942 31.0962 78.638 31.0682 78.486 31.0656H78.4866Z" fill="black"/>
<path d="M105.154 19.9965C104.447 20.2161 96.0885 22.8606 87.8103 25.5193C83.6712 26.8487 79.5568 28.1801 76.439 29.2108C74.8801 29.7261 73.571 30.1657 72.6295 30.4936C72.1588 30.6576 71.7808 30.7938 71.5051 30.8986C71.3672 30.9511 71.2549 30.9952 71.1648 31.0343C71.075 31.0732 71.0487 31.0554 70.8942 31.1869C68.7691 32.9933 68.076 35.6891 68.0299 38.2391C67.9838 40.789 68.5713 43.2271 69.0992 44.6971C70.1061 47.4976 73.3822 48.0487 73.3822 48.0487C73.5138 48.0723 73.6495 48.043 73.7594 47.9673C73.8692 47.8916 73.9443 47.7757 73.9681 47.645C73.9918 47.5144 73.9624 47.3797 73.8861 47.2706C73.8099 47.1615 73.6931 47.0869 73.5615 47.0633C73.5615 47.0633 70.8316 46.5356 70.0496 44.3606C69.5619 43.0023 68.9957 40.64 69.0387 38.2567C69.0815 35.8882 69.718 33.5362 71.5215 31.9806C71.5369 31.9705 71.5491 31.9612 71.5688 31.9526C71.6343 31.9242 71.7361 31.8832 71.8656 31.8339C72.1249 31.7353 72.4973 31.6016 72.9632 31.4393C73.8949 31.1148 75.2019 30.6754 76.7582 30.161C79.8707 29.1321 83.9833 27.8011 88.121 26.4722C96.3964 23.8144 104.79 21.1592 105.455 20.9527C105.583 20.913 105.69 20.8247 105.752 20.707C105.814 20.5894 105.826 20.452 105.786 20.3253C105.767 20.2624 105.735 20.204 105.692 20.1535C105.65 20.1029 105.598 20.0612 105.539 20.0307C105.48 20.0002 105.416 19.9814 105.35 19.9756C105.284 19.9697 105.217 19.9768 105.154 19.9965Z" fill="black"/>
<path d="M107.121 19.7965C104.162 19.6474 101.443 21.533 99.4391 24.5534C97.4356 27.5739 96.1001 31.7642 95.8608 36.4484C95.6215 41.1326 96.523 45.4363 98.2084 48.6426C99.8939 51.8489 102.407 53.998 105.366 54.1471C108.325 54.2961 111.044 52.4106 113.048 49.3901C115.051 46.3696 116.387 42.1786 116.626 37.4945C116.865 32.8103 115.964 28.5073 114.278 25.301C112.593 22.0946 110.08 19.9455 107.121 19.7965ZM107.07 20.7969C109.566 20.9227 111.802 22.755 113.384 25.764C114.966 28.7729 115.85 32.9185 115.618 37.4437C115.387 41.9689 114.085 46.0044 112.205 48.8389C110.325 51.6735 107.914 53.2724 105.417 53.1466C102.92 53.0208 100.685 51.1879 99.1028 48.1789C97.5211 45.17 96.6365 41.0243 96.8677 36.4991C97.0989 31.974 98.4015 27.9385 100.282 25.1039C102.162 22.2694 104.573 20.6712 107.07 20.7969Z" fill="black"/>
<path fill-rule="evenodd" clip-rule="evenodd" d="M96.9687 43.7628C96.7218 42.6799 96.5375 41.5363 96.4288 40.3485C96.8893 44.0595 98.5035 46.7867 100.558 46.8902C103.161 47.0213 105.492 42.8903 105.759 37.6705C106.026 32.4501 104.128 28.1061 101.525 27.975C98.9768 27.8466 96.6914 31.8033 96.3457 36.8671C96.3457 36.8472 96.3492 36.8278 96.3492 36.8079C96.7937 29.8087 100.173 24.3277 103.977 24.5193C107.832 24.7135 110.663 30.6695 110.299 37.8117C109.934 44.9534 106.509 50.5943 102.655 50.4002C100.102 50.2716 97.9943 47.616 96.9687 43.7628Z" fill="black"/>
<path d="M105.563 22.1451C103 22.016 100.654 23.648 98.9325 26.2433C97.211 28.8386 96.0666 32.4323 95.8615 36.4476C95.6564 40.4629 96.4286 44.1526 97.8768 46.9076C99.325 49.6625 101.492 51.5225 104.056 51.6516C106.619 51.7808 108.966 50.1482 110.687 47.5529C112.409 44.9576 113.553 41.3645 113.758 37.3492C113.963 33.3339 113.191 29.6436 111.743 26.8886C110.295 24.1336 108.127 22.2743 105.563 22.1451ZM105.512 23.1469C107.612 23.2527 109.503 24.7956 110.848 27.3529C112.192 29.9102 112.946 33.4423 112.749 37.2983C112.552 41.1544 111.442 44.592 109.844 47.001C108.246 49.4101 106.207 50.755 104.107 50.6492C102.007 50.5434 100.116 49.0006 98.7719 46.4433C97.4276 43.886 96.6734 40.3545 96.8704 36.4985C97.0674 32.6424 98.1777 29.2042 99.7757 26.7951C101.374 24.386 103.412 23.0412 105.512 23.1469Z" fill="black"/>
<path d="M91.0808 50.4319C91.0158 50.4194 90.9488 50.4197 90.8839 50.4329C90.819 50.446 90.7574 50.4717 90.7025 50.5086C90.6476 50.5454 90.6006 50.5926 90.5641 50.6475C90.5275 50.7023 90.5023 50.7638 90.4897 50.8284C90.4771 50.893 90.4774 50.9594 90.4907 51.0238C90.5039 51.0883 90.5298 51.1495 90.5668 51.204C90.6039 51.2585 90.6515 51.3052 90.7067 51.3415C90.762 51.3778 90.824 51.4029 90.889 51.4154L104.125 53.9609C104.19 53.9734 104.257 53.973 104.322 53.9599C104.387 53.9467 104.448 53.921 104.503 53.8842C104.558 53.8474 104.605 53.8002 104.642 53.7453C104.678 53.6904 104.704 53.6289 104.716 53.5644C104.729 53.4998 104.728 53.4334 104.715 53.3689C104.702 53.3045 104.676 53.2432 104.639 53.1887C104.602 53.1342 104.554 53.0875 104.499 53.0512C104.444 53.015 104.382 52.9899 104.317 52.9774L91.0808 50.4319Z" fill="black"/>
<path d="M69.1015 33.9326C69.1015 33.9326 66.8278 34.5099 65.6526 34.922C65.1928 35.0831 64.8465 35.4504 64.5387 35.9329C64.2306 36.4157 63.9748 37.0315 63.8135 37.7467C63.4912 39.1766 63.5552 41.0107 64.4644 42.8736C64.6212 43.1974 64.8851 43.3974 65.2053 43.5897C65.5256 43.782 65.9155 43.9503 66.3574 44.0886C67.241 44.3652 68.3306 44.5214 69.4207 44.401C69.5536 44.3863 69.6751 44.3197 69.7586 44.216C69.8421 44.1123 69.8808 43.9799 69.866 43.848C69.8512 43.716 69.7841 43.5953 69.6797 43.5124C69.5752 43.4295 69.442 43.3911 69.309 43.4058C68.3916 43.5071 67.4183 43.3703 66.6608 43.1332C66.2821 43.0146 65.9571 42.8706 65.7275 42.7327C65.4979 42.5948 65.3771 42.446 65.3741 42.4399V42.4385C64.5693 40.7905 64.5226 39.1901 64.7988 37.9651C64.9368 37.3527 65.1576 36.8361 65.3919 36.469C65.6261 36.1019 65.8882 35.9018 65.9895 35.8664C67.0541 35.4931 69.3537 34.9024 69.3537 34.9024C69.4179 34.8861 69.4782 34.8573 69.5312 34.8178C69.5842 34.7783 69.6288 34.7289 69.6626 34.6722C69.6963 34.6156 69.7184 34.5529 69.7278 34.4878C69.7371 34.4227 69.7334 34.3563 69.7169 34.2926C69.6835 34.164 69.6001 34.0539 69.4849 33.9864C69.3697 33.9189 69.2323 33.8995 69.1028 33.9326L69.1015 33.9326Z" fill="black"/>
<path d="M116.519 13.4753C116.392 13.5159 116.286 13.605 116.225 13.7231C116.225 13.7231 115.868 14.4116 115.357 15.2479C114.846 16.0843 114.169 17.0687 113.619 17.5965C113.571 17.6422 113.533 17.6967 113.507 17.7571C113.48 17.8174 113.466 17.8823 113.465 17.9481C113.464 18.0138 113.476 18.0792 113.5 18.1404C113.524 18.2016 113.56 18.2575 113.606 18.3048C113.652 18.3521 113.707 18.39 113.768 18.4162C113.829 18.4424 113.894 18.4565 113.96 18.4577C114.027 18.4588 114.093 18.447 114.154 18.4229C114.216 18.3988 114.272 18.3629 114.32 18.3172C115.013 17.6522 115.689 16.6348 116.219 15.7671C116.749 14.8994 117.122 14.1822 117.122 14.1822C117.152 14.1238 117.171 14.0599 117.176 13.9943C117.182 13.9287 117.174 13.8627 117.154 13.8C117.134 13.7373 117.101 13.6792 117.058 13.6289C117.016 13.5787 116.963 13.5374 116.904 13.5072C116.845 13.4771 116.781 13.4587 116.715 13.4532C116.649 13.4477 116.583 13.4552 116.519 13.4753Z" fill="black"/>
<path d="M124.987 18.3563C124.921 18.3463 124.855 18.3492 124.79 18.3649C124.726 18.3805 124.665 18.4086 124.612 18.4476C123.372 19.3497 120.008 21.4516 120.008 21.4516C119.952 21.4866 119.903 21.5322 119.865 21.5858C119.826 21.6395 119.799 21.7001 119.784 21.7642C119.769 21.8284 119.768 21.8948 119.779 21.9596C119.79 22.0245 119.814 22.0865 119.849 22.1423C119.884 22.198 119.93 22.2463 119.984 22.2844C120.038 22.3224 120.099 22.3496 120.164 22.3642C120.228 22.3789 120.295 22.3808 120.36 22.3698C120.426 22.3588 120.488 22.3351 120.544 22.3001C120.544 22.3001 123.872 20.2275 125.208 19.2556C125.262 19.2168 125.307 19.1678 125.341 19.1116C125.376 19.0553 125.399 18.9929 125.409 18.9279C125.419 18.8628 125.416 18.7964 125.401 18.7325C125.385 18.6685 125.357 18.6083 125.317 18.5552C125.278 18.5021 125.229 18.4572 125.172 18.4231C125.115 18.3889 125.052 18.3662 124.987 18.3563Z" fill="black"/>
<path fill-rule="evenodd" clip-rule="evenodd" d="M123.424 28.2305C123.476 28.3777 123.454 28.5441 123.363 28.6932C123.272 28.8423 123.119 28.9618 122.938 29.0254C122.757 29.0891 122.562 29.0916 122.397 29.0325C122.232 28.9735 122.109 28.8575 122.057 28.7103C122.005 28.5631 122.026 28.3967 122.117 28.2477C122.208 28.0986 122.361 27.9791 122.543 27.9154C122.724 27.8518 122.918 27.8492 123.084 27.9083C123.249 27.9674 123.371 28.0833 123.424 28.2305Z" fill="black"/>
<path d="M129.221 35.4223C128.335 35.4274 127.241 35.4449 126.173 35.4653C124.038 35.5063 122.014 35.5605 122.014 35.5605C121.88 35.5643 121.753 35.6206 121.661 35.7171C121.57 35.8136 121.52 35.9424 121.524 36.0751C121.527 36.2078 121.584 36.3335 121.681 36.4247C121.778 36.5159 121.908 36.5652 122.041 36.5617C122.041 36.5617 124.063 36.5073 126.193 36.4664C127.258 36.446 128.349 36.4292 129.227 36.424C130.105 36.4189 130.829 36.4359 130.934 36.4488C131.066 36.4653 131.2 36.4286 131.306 36.3471C131.411 36.2655 131.48 36.1456 131.497 36.0138C131.513 35.8821 131.476 35.7493 131.394 35.6445C131.312 35.5397 131.192 35.4715 131.059 35.4549C130.725 35.4134 130.107 35.4171 129.221 35.4223Z" fill="black"/>
<path d="M121.681 42.301C121.554 42.2611 121.415 42.2732 121.297 42.3346C121.178 42.396 121.089 42.5017 121.049 42.6284C121.009 42.7551 121.021 42.8924 121.082 43.0102C121.144 43.128 121.251 43.2166 121.378 43.2564C121.378 43.2564 123.001 43.7816 123.654 44.1513C123.77 44.217 123.908 44.2343 124.037 44.1993C124.166 44.1643 124.276 44.0799 124.342 43.9647C124.375 43.9076 124.396 43.8446 124.404 43.7793C124.413 43.7141 124.408 43.6478 124.39 43.5843C124.373 43.5209 124.343 43.4614 124.303 43.4094C124.262 43.3574 124.212 43.3138 124.154 43.2812C123.267 42.7787 121.681 42.301 121.681 42.301Z" fill="black"/>
<path d="M118.901 48.5066C118.836 48.4916 118.769 48.4894 118.704 48.5C118.639 48.5107 118.576 48.534 118.52 48.5687C118.463 48.6034 118.414 48.6488 118.376 48.7023C118.337 48.7558 118.31 48.8162 118.295 48.8803C118.279 48.9444 118.277 49.0108 118.288 49.0757C118.299 49.1406 118.322 49.2028 118.357 49.2587C118.392 49.3146 118.438 49.3632 118.492 49.4015C118.545 49.4399 118.606 49.4673 118.671 49.4823C118.671 49.4823 121.745 50.2054 123.944 51.2765C124.003 51.3055 124.068 51.3226 124.134 51.3268C124.2 51.331 124.266 51.3222 124.329 51.3009C124.392 51.2796 124.45 51.2463 124.499 51.2029C124.549 51.1594 124.59 51.1066 124.619 51.0476C124.648 50.9885 124.665 50.9243 124.669 50.8587C124.674 50.793 124.665 50.7272 124.644 50.6649C124.622 50.6026 124.588 50.5452 124.545 50.4958C124.501 50.4464 124.448 50.4061 124.388 50.3771C122.02 49.2236 118.901 48.5066 118.901 48.5066Z" fill="black"/>
<path d="M115.559 54.4233C115.454 54.3415 115.32 54.3046 115.187 54.3207C115.055 54.3369 114.934 54.4047 114.851 54.5094C114.769 54.614 114.732 54.7469 114.748 54.8787C114.764 55.0106 114.832 55.1306 114.938 55.2124C114.938 55.2124 115.935 56.003 116.411 56.6088C116.452 56.6607 116.502 56.7041 116.56 56.7366C116.618 56.7691 116.681 56.79 116.747 56.7981C116.813 56.8062 116.879 56.8014 116.943 56.7839C117.007 56.7664 117.067 56.7366 117.119 56.6962C117.171 56.6557 117.215 56.6055 117.248 56.5483C117.281 56.4911 117.302 56.428 117.31 56.3627C117.318 56.2974 117.313 56.2312 117.295 56.1678C117.278 56.1043 117.248 56.045 117.207 55.9931C116.587 55.2031 115.559 54.4233 115.559 54.4233Z" fill="black"/>
</g>
<defs>
<clipPath id="clip0_526_59346">
<rect width="131" height="118" fill="white" transform="translate(0.5 0.5)"/>
</clipPath>
</defs>
</svg>
