<svg width="32" height="32" viewBox="0 0 32 32" fill="none" xmlns="http://www.w3.org/2000/svg">
<path d="M20.3115 12.8999C20.3115 11.5738 19.7847 10.3021 18.8471 9.36437C17.9094 8.42669 16.6376 7.8999 15.3115 7.8999C13.9854 7.8999 12.7137 8.42669 11.776 9.36437C10.8383 10.3021 10.3115 11.5738 10.3115 12.8999C10.3115 18.7332 7.81152 20.3999 7.81152 20.3999H22.8115C22.8115 20.3999 20.3115 18.7332 20.3115 12.8999Z" stroke="black" stroke-width="1.5" stroke-linecap="round" stroke-linejoin="round"/>
<path d="M16.7534 23.7333C16.6069 23.9858 16.3967 24.1955 16.1436 24.3412C15.8906 24.487 15.6038 24.5637 15.3118 24.5637C15.0198 24.5637 14.7329 24.487 14.4799 24.3412C14.2269 24.1955 14.0166 23.9858 13.8701 23.7333" stroke="black" stroke-width="1.5" stroke-linecap="round" stroke-linejoin="round"/>
</svg>
