<svg width="48" height="48" viewBox="0 0 48 48" fill="none" xmlns="http://www.w3.org/2000/svg">
<rect width="48" height="48" rx="24" fill="#FCDEC0"/>
<path d="M34.148 22.6619V23.5819C34.1467 25.7383 33.4485 27.8366 32.1573 29.5637C30.8661 31.2909 29.0512 32.5544 26.9833 33.1658C24.9154 33.7772 22.7052 33.7038 20.6824 32.9565C18.6596 32.2092 16.9326 30.828 15.7589 29.019C14.5852 27.2099 14.0277 25.07 14.1696 22.9182C14.3115 20.7665 15.1452 18.7182 16.5462 17.079C17.9473 15.4397 19.8407 14.2973 21.9441 13.822C24.0475 13.3468 26.2482 13.5642 28.218 14.4419" stroke="black" stroke-width="2" stroke-linecap="round" stroke-linejoin="round"/>
<path d="M34.1479 15.5818L24.1479 25.5918L21.1479 22.5918" stroke="black" stroke-width="2" stroke-linecap="round" stroke-linejoin="round"/>
</svg>
