<svg width="64" height="64" viewBox="0 0 64 64" fill="none" xmlns="http://www.w3.org/2000/svg">
<path d="M55.3308 31.9998L58.2748 26.9118C58.6287 26.2997 58.7249 25.5721 58.5424 24.889C58.3599 24.2059 57.9135 23.6232 57.3015 23.2692L52.2082 20.3252V14.4585C52.2082 13.7512 51.9272 13.073 51.4271 12.5729C50.927 12.0728 50.2487 11.7918 49.5415 11.7918H43.6775L40.7362 6.70116C40.3827 6.08871 39.8005 5.64172 39.1175 5.45849C38.7792 5.36783 38.4263 5.34472 38.079 5.39047C37.7317 5.43623 37.3968 5.54996 37.0935 5.72516L32.0002 8.66916L26.9068 5.72249C26.2944 5.36889 25.5665 5.27306 24.8834 5.4561C24.2003 5.63913 23.6178 6.08603 23.2642 6.69849L20.3202 11.7918H14.4562C13.7489 11.7918 13.0707 12.0728 12.5706 12.5729C12.0705 13.073 11.7895 13.7512 11.7895 14.4585V20.3225L6.69618 23.2665C6.39279 23.4418 6.12693 23.6752 5.91379 23.9533C5.70065 24.2315 5.54442 24.5489 5.45403 24.8874C5.36363 25.226 5.34085 25.579 5.38697 25.9264C5.4331 26.2737 5.54723 26.6086 5.72285 26.9118L8.66685 31.9998L5.72285 37.0878C5.37082 37.7006 5.2753 38.4276 5.45714 39.1105C5.63897 39.7933 6.08339 40.3766 6.69351 40.7332L11.7868 43.6772V49.5412C11.7868 50.2484 12.0678 50.9267 12.5679 51.4268C13.068 51.9269 13.7463 52.2078 14.4535 52.2078H20.3202L23.2642 57.3012C23.5003 57.7047 23.8373 58.0399 24.2423 58.2737C24.6472 58.5075 25.106 58.6318 25.5735 58.6345C26.0375 58.6345 26.4988 58.5118 26.9095 58.2745L31.9975 55.3305L37.0908 58.2745C37.703 58.6283 38.4306 58.7245 39.1137 58.542C39.7968 58.3595 40.3794 57.9132 40.7335 57.3012L43.6748 52.2078H49.5388C50.2461 52.2078 50.9244 51.9269 51.4245 51.4268C51.9246 50.9267 52.2055 50.2484 52.2055 49.5412V43.6772L57.2988 40.7332C57.6022 40.5578 57.8681 40.3244 58.0812 40.0463C58.2944 39.7682 58.4506 39.4508 58.541 39.1122C58.6314 38.7737 58.6542 38.4206 58.6081 38.0733C58.5619 37.7259 58.4478 37.391 58.2722 37.0878L55.3308 31.9998Z" fill="#4BCA7E"/>
<path d="M41.5 29.0002C41.5004 30.2838 41.1207 31.5388 40.4089 32.607C39.697 33.6751 38.6849 34.5085 37.5 35.0022V35.0002C37.5 32.7459 36.6045 30.5839 35.0104 28.9898C33.4163 27.3958 31.2543 26.5002 29 26.5002H28.998C29.5768 25.114 30.6178 23.9709 31.944 23.2653C33.2702 22.5597 34.7999 22.3351 36.273 22.6297C37.746 22.9242 39.0717 23.7198 40.0246 24.8811C40.9775 26.0425 41.4988 27.498 41.5 29.0002ZM27 23.0002C25.9391 23.0002 24.9217 23.4217 24.1716 24.1718C23.4214 24.922 23 25.9394 23 27.0002V28.5002H25V27.0002C25 26.4698 25.2107 25.9611 25.5858 25.586C25.9609 25.211 26.4696 25.0002 27 25.0002H28.5V23.0002H27ZM39 35.5002V37.0002C39 37.5307 38.7893 38.0394 38.4142 38.4145C38.0391 38.7895 37.5304 39.0002 37 39.0002H35.5V41.0002H37C38.0609 41.0002 39.0783 40.5788 39.8284 39.8287C40.5786 39.0785 41 38.0611 41 37.0002V35.5002H39ZM29 41.5002C30.7239 41.5002 32.3772 40.8154 33.5962 39.5964C34.8152 38.3774 35.5 36.7241 35.5 35.0002C35.5 33.2763 34.8152 31.623 33.5962 30.404C32.3772 29.1851 30.7239 28.5002 29 28.5002C27.2761 28.5002 25.6228 29.1851 24.4038 30.404C23.1848 31.623 22.5 33.2763 22.5 35.0002C22.5 36.7241 23.1848 38.3774 24.4038 39.5964C25.6228 40.8154 27.2761 41.5002 29 41.5002ZM29 32.5002L31.5 35.0002L29 37.5002L26.5 35.0002L29 32.5002Z" fill="white"/>
</svg>
