<svg width="32" height="32" viewBox="0 0 32 32" fill="none" xmlns="http://www.w3.org/2000/svg">
<g clip-path="url(#clip0_52_28157)">
<path d="M15.7197 18.4736C16.8243 18.4736 17.7197 17.5782 17.7197 16.4736C17.7197 15.3691 16.8243 14.4736 15.7197 14.4736C14.6152 14.4736 13.7197 15.3691 13.7197 16.4736C13.7197 17.5782 14.6152 18.4736 15.7197 18.4736Z" stroke="black" stroke-width="1.5" stroke-linecap="round" stroke-linejoin="round"/>
<path d="M20.6534 18.4736C20.5646 18.6747 20.5382 18.8977 20.5774 19.114C20.6166 19.3302 20.7197 19.5298 20.8734 19.6869L20.9134 19.7269C21.0374 19.8508 21.1357 19.9978 21.2028 20.1597C21.2699 20.3215 21.3044 20.495 21.3044 20.6703C21.3044 20.8455 21.2699 21.019 21.2028 21.1808C21.1357 21.3427 21.0374 21.4898 20.9134 21.6136C20.7896 21.7376 20.6425 21.8359 20.4806 21.903C20.3188 21.9701 20.1453 22.0046 19.9701 22.0046C19.7948 22.0046 19.6213 21.9701 19.4595 21.903C19.2976 21.8359 19.1505 21.7376 19.0267 21.6136L18.9867 21.5736C18.8296 21.4199 18.63 21.3168 18.4138 21.2776C18.1975 21.2384 17.9745 21.2648 17.7734 21.3536C17.5762 21.4381 17.408 21.5784 17.2896 21.7573C17.1711 21.9361 17.1076 22.1457 17.1067 22.3603V22.4736C17.1067 22.8272 16.9662 23.1664 16.7162 23.4164C16.4661 23.6664 16.127 23.8069 15.7734 23.8069C15.4198 23.8069 15.0806 23.6664 14.8306 23.4164C14.5805 23.1664 14.4401 22.8272 14.4401 22.4736V22.4136C14.4349 22.1929 14.3635 21.9789 14.2351 21.7994C14.1067 21.6199 13.9272 21.4831 13.7201 21.4069C13.519 21.3182 13.2959 21.2917 13.0797 21.3309C12.8634 21.3701 12.6638 21.4732 12.5067 21.6269L12.4667 21.6669C12.3429 21.7909 12.1958 21.8892 12.034 21.9563C11.8721 22.0234 11.6986 22.058 11.5234 22.058C11.3482 22.058 11.1747 22.0234 11.0128 21.9563C10.8509 21.8892 10.7039 21.7909 10.5801 21.6669C10.4561 21.5431 10.3577 21.396 10.2906 21.2342C10.2235 21.0723 10.189 20.8988 10.189 20.7236C10.189 20.5484 10.2235 20.3749 10.2906 20.213C10.3577 20.0511 10.4561 19.9041 10.5801 19.7803L10.6201 19.7403C10.7737 19.5831 10.8768 19.3836 10.9161 19.1673C10.9553 18.9511 10.9288 18.728 10.8401 18.5269C10.7555 18.3297 10.6152 18.1616 10.4364 18.0431C10.2575 17.9247 10.0479 17.8611 9.83339 17.8603H9.72005C9.36643 17.8603 9.02729 17.7198 8.77724 17.4697C8.52719 17.2197 8.38672 16.8805 8.38672 16.5269C8.38672 16.1733 8.52719 15.8342 8.77724 15.5841C9.02729 15.3341 9.36643 15.1936 9.72005 15.1936H9.78005C10.0007 15.1884 10.2147 15.117 10.3943 14.9886C10.5738 14.8602 10.7105 14.6807 10.7867 14.4736C10.8755 14.2725 10.9019 14.0495 10.8627 13.8332C10.8235 13.6169 10.7204 13.4174 10.5667 13.2603L10.5267 13.2203C10.4028 13.0964 10.3044 12.9494 10.2373 12.7875C10.1702 12.6256 10.1357 12.4521 10.1357 12.2769C10.1357 12.1017 10.1702 11.9282 10.2373 11.7663C10.3044 11.6045 10.4028 11.4574 10.5267 11.3336C10.6505 11.2096 10.7976 11.1113 10.9595 11.0442C11.1213 10.9771 11.2948 10.9425 11.4701 10.9425C11.6453 10.9425 11.8188 10.9771 11.9806 11.0442C12.1425 11.1113 12.2896 11.2096 12.4134 11.3336L12.4534 11.3736C12.6105 11.5273 12.8101 11.6304 13.0263 11.6696C13.2426 11.7088 13.4656 11.6823 13.6667 11.5936H13.7201C13.9172 11.5091 14.0854 11.3688 14.2038 11.1899C14.3223 11.011 14.3859 10.8014 14.3867 10.5869V10.4736C14.3867 10.12 14.5272 9.78083 14.7772 9.53078C15.0273 9.28073 15.3664 9.14026 15.7201 9.14026C16.0737 9.14026 16.4128 9.28073 16.6629 9.53078C16.9129 9.78083 17.0534 10.12 17.0534 10.4736V10.5336C17.0542 10.7481 17.1178 10.9577 17.2363 11.1366C17.3547 11.3154 17.5229 11.4558 17.7201 11.5403C17.9211 11.629 18.1442 11.6555 18.3604 11.6163C18.5767 11.577 18.7763 11.474 18.9334 11.3203L18.9734 11.2803C19.0972 11.1563 19.2443 11.0579 19.4061 10.9908C19.568 10.9237 19.7415 10.8892 19.9167 10.8892C20.0919 10.8892 20.2654 10.9237 20.4273 10.9908C20.5892 11.0579 20.7362 11.1563 20.8601 11.2803C20.984 11.4041 21.0824 11.5511 21.1495 11.713C21.2166 11.8749 21.2511 12.0484 21.2511 12.2236C21.2511 12.3988 21.2166 12.5723 21.1495 12.7342C21.0824 12.896 20.984 13.0431 20.8601 13.1669L20.8201 13.2069C20.6664 13.364 20.5633 13.5636 20.524 13.7799C20.4848 13.9961 20.5113 14.2192 20.6001 14.4203V14.4736C20.6846 14.6708 20.8249 14.8389 21.0037 14.9574C21.1826 15.0758 21.3922 15.1394 21.6067 15.1403H21.7201C22.0737 15.1403 22.4128 15.2807 22.6629 15.5308C22.9129 15.7808 23.0534 16.12 23.0534 16.4736C23.0534 16.8272 22.9129 17.1664 22.6629 17.4164C22.4128 17.6664 22.0737 17.8069 21.7201 17.8069H21.6601C21.4455 17.8078 21.2359 17.8713 21.0571 17.9898C20.8782 18.1082 20.7379 18.2764 20.6534 18.4736Z" stroke="black" stroke-width="1.5" stroke-linecap="round" stroke-linejoin="round"/>
</g>
<defs>
<clipPath id="clip0_52_28157">
<rect width="16" height="16" fill="white" transform="translate(7.71973 8.47363)"/>
</clipPath>
</defs>
</svg>
