<svg width="41" height="57" viewBox="0 0 41 57" fill="none" xmlns="http://www.w3.org/2000/svg">
<path d="M31.4642 31.1291V55.4115C31.4642 56.2167 30.5979 56.7263 29.8946 56.3339L21.0123 51.3959C20.8543 51.3041 20.676 51.2583 20.4976 51.2583C20.3244 51.2583 20.146 51.3041 19.988 51.3959L11.1057 56.3339C10.4025 56.7263 9.53613 56.2167 9.53613 55.4115V31.1291C9.53613 30.5481 10.0101 30.0742 10.591 30.0742H30.4093C30.9903 30.0742 31.4642 30.5481 31.4642 31.1291Z" fill="#FFCE00"/>
<g style="mix-blend-mode:multiply" opacity="0.3">
<path d="M31.4641 31.1291V55.4115C31.4641 56.2167 30.5978 56.7263 29.8946 56.3339L21.0122 51.3959C20.8543 51.3041 20.6759 51.2583 20.4976 51.2583V30.0742H30.4093C30.9902 30.0742 31.4641 30.5481 31.4641 31.1291Z" fill="#BF9A00"/>
</g>
<path d="M23.8965 2.77477H23.9016C24.4163 5.31258 27.428 6.40821 29.4562 4.79788C32.4119 2.44862 36.4632 5.84766 34.6643 9.17025C33.4311 11.4431 35.0312 14.2204 37.62 14.2917C41.3961 14.3885 42.3134 19.5967 38.8023 20.9828C36.3919 21.9357 35.8364 25.0901 37.7729 26.8075C40.6012 29.3147 37.9563 33.8909 34.3739 32.6934C31.9176 31.8729 29.4613 33.9368 29.8435 36.495C30.4041 40.2354 25.4304 42.0445 23.4582 38.8238C22.1027 36.6173 18.8973 36.6173 17.5418 38.8238C15.5696 42.0445 10.5959 40.2354 11.1565 36.495C11.5387 33.9368 9.08243 31.8729 6.62616 32.6934C3.04367 33.8909 0.398841 29.3147 3.22712 26.8075C5.1636 25.0901 4.60814 21.9357 2.19773 20.9828C-1.31341 19.5967 -0.396134 14.3885 3.38 14.2917C5.96876 14.2204 7.56891 11.4431 6.33568 9.17025C4.53679 5.84766 8.58812 2.44862 11.5438 4.79788C13.572 6.40821 16.5837 5.31258 17.1035 2.77477C17.8577 -0.924923 23.1423 -0.924923 23.8965 2.77477Z" fill="#3B82F4"/>
<path fill-rule="evenodd" clip-rule="evenodd" d="M20.5027 33.1826C17.0425 33.1826 13.7964 31.8373 11.3503 29.3912C8.90931 26.9502 7.56396 23.699 7.56396 20.2439C7.56396 16.7888 8.90931 13.5376 11.3503 11.0966C13.7964 8.65562 17.0425 7.30518 20.5027 7.30518C23.9578 7.30518 27.2039 8.65562 29.65 11.0966C32.091 13.5376 33.4363 16.7888 33.4363 20.2439C33.4363 23.699 32.091 26.9502 29.65 29.3912C27.2039 31.8373 23.9578 33.1826 20.5027 33.1826ZM20.5027 9.31809C14.4741 9.31809 9.57688 14.2204 9.57688 20.2439C9.57688 26.2674 14.4741 31.1697 20.5027 31.1697C26.5262 31.1697 31.4234 26.2674 31.4234 20.2439C31.4234 14.2204 26.5262 9.31809 20.5027 9.31809Z" fill="white"/>
<path d="M20.8644 14.251L22.1486 18.2106C22.1995 18.3686 22.3473 18.4756 22.5104 18.4756H26.6738C27.0458 18.4756 27.1987 18.9495 26.898 19.1636L23.5296 21.6147C23.3971 21.7116 23.341 21.8797 23.392 22.0377L24.6813 25.9973C24.7934 26.3489 24.3908 26.6445 24.0952 26.4254L20.7217 23.9793C20.5892 23.8825 20.4108 23.8825 20.2783 23.9793L16.9048 26.4254C16.6092 26.6445 16.2066 26.3489 16.3187 25.9973L17.608 22.0377C17.659 21.8797 17.6029 21.7116 17.4704 21.6147L14.102 19.1636C13.8013 18.9495 13.9542 18.4756 14.3262 18.4756H18.4896C18.6527 18.4756 18.8005 18.3686 18.8515 18.2106L20.1356 14.251C20.2528 13.8994 20.7472 13.8994 20.8644 14.251Z" fill="white"/>
</svg>
