<svg width="16" height="16" viewBox="0 0 16 16" fill="none" xmlns="http://www.w3.org/2000/svg">
<path d="M4.16667 3.33333C3.70667 3.33333 3.33333 3.70667 3.33333 4.16667V11.8333C3.33333 12.2933 3.70667 12.6667 4.16667 12.6667H11.8333C12.2933 12.6667 12.6667 12.2933 12.6667 11.8333V9.33333C12.6667 9.15652 12.7369 8.98695 12.8619 8.86193C12.987 8.73691 13.1565 8.66667 13.3333 8.66667C13.5101 8.66667 13.6797 8.73691 13.8047 8.86193C13.9298 8.98695 14 9.15652 14 9.33333V11.8333C14 12.408 13.7717 12.9591 13.3654 13.3654C12.9591 13.7717 12.408 14 11.8333 14H4.16667C3.59203 14 3.04093 13.7717 2.6346 13.3654C2.22827 12.9591 2 12.408 2 11.8333V4.16667C2 3.59203 2.22827 3.04093 2.6346 2.6346C3.04093 2.22827 3.59203 2 4.16667 2H6.66667C6.84348 2 7.01305 2.07024 7.13807 2.19526C7.2631 2.32029 7.33333 2.48986 7.33333 2.66667C7.33333 2.84348 7.2631 3.01305 7.13807 3.13807C7.01305 3.2631 6.84348 3.33333 6.66667 3.33333H4.16667ZM9.33333 3.33333C9.15652 3.33333 8.98695 3.2631 8.86193 3.13807C8.73691 3.01305 8.66667 2.84348 8.66667 2.66667C8.66667 2.48986 8.73691 2.32029 8.86193 2.19526C8.98695 2.07024 9.15652 2 9.33333 2H13.3333C13.5101 2 13.6797 2.07024 13.8047 2.19526C13.9298 2.32029 14 2.48986 14 2.66667V6.66667C14 6.84348 13.9298 7.01305 13.8047 7.13807C13.6797 7.2631 13.5101 7.33333 13.3333 7.33333C13.1565 7.33333 12.987 7.2631 12.8619 7.13807C12.7369 7.01305 12.6667 6.84348 12.6667 6.66667V4.276L9.80467 7.138C9.67893 7.25944 9.51053 7.32663 9.33573 7.32512C9.16093 7.3236 8.99373 7.25348 8.87012 7.12988C8.74652 7.00627 8.6764 6.83907 8.67488 6.66427C8.67337 6.48947 8.74056 6.32107 8.862 6.19533L11.724 3.33333H9.33333Z" fill="#848698"/>
</svg>
