<svg width="16" height="17" viewBox="0 0 16 17" fill="none" xmlns="http://www.w3.org/2000/svg">
<path d="M4.16667 3.5804C3.70667 3.5804 3.33333 3.95374 3.33333 4.41374V12.0804C3.33333 12.5404 3.70667 12.9137 4.16667 12.9137H11.8333C12.2933 12.9137 12.6667 12.5404 12.6667 12.0804V9.5804C12.6667 9.40359 12.7369 9.23402 12.8619 9.109C12.987 8.98398 13.1565 8.91374 13.3333 8.91374C13.5101 8.91374 13.6797 8.98398 13.8047 9.109C13.9298 9.23402 14 9.40359 14 9.5804V12.0804C14 12.655 13.7717 13.2061 13.3654 13.6125C12.9591 14.0188 12.408 14.2471 11.8333 14.2471H4.16667C3.59203 14.2471 3.04093 14.0188 2.6346 13.6125C2.22827 13.2061 2 12.655 2 12.0804V4.41374C2 3.8391 2.22827 3.288 2.6346 2.88167C3.04093 2.47534 3.59203 2.24707 4.16667 2.24707H6.66667C6.84348 2.24707 7.01305 2.31731 7.13807 2.44233C7.2631 2.56736 7.33333 2.73693 7.33333 2.91374C7.33333 3.09055 7.2631 3.26012 7.13807 3.38514C7.01305 3.51017 6.84348 3.5804 6.66667 3.5804H4.16667ZM9.33333 3.5804C9.15652 3.5804 8.98695 3.51017 8.86193 3.38514C8.73691 3.26012 8.66667 3.09055 8.66667 2.91374C8.66667 2.73693 8.73691 2.56736 8.86193 2.44233C8.98695 2.31731 9.15652 2.24707 9.33333 2.24707H13.3333C13.5101 2.24707 13.6797 2.31731 13.8047 2.44233C13.9298 2.56736 14 2.73693 14 2.91374V6.91374C14 7.09055 13.9298 7.26012 13.8047 7.38514C13.6797 7.51017 13.5101 7.5804 13.3333 7.5804C13.1565 7.5804 12.987 7.51017 12.8619 7.38514C12.7369 7.26012 12.6667 7.09055 12.6667 6.91374V4.52307L9.80467 7.38507C9.67893 7.50651 9.51053 7.57371 9.33573 7.57219C9.16093 7.57067 8.99373 7.50056 8.87012 7.37695C8.74652 7.25334 8.6764 7.08614 8.67488 6.91134C8.67337 6.73654 8.74056 6.56814 8.862 6.4424L11.724 3.5804H9.33333Z" fill="#EB5B00"/>
</svg>
