<svg width="17" height="17" viewBox="0 0 17 17" fill="none" xmlns="http://www.w3.org/2000/svg">
<path d="M4.66667 3.83333C4.20667 3.83333 3.83333 4.20667 3.83333 4.66667V12.3333C3.83333 12.7933 4.20667 13.1667 4.66667 13.1667H12.3333C12.7933 13.1667 13.1667 12.7933 13.1667 12.3333V9.83333C13.1667 9.65652 13.2369 9.48695 13.3619 9.36193C13.487 9.23691 13.6565 9.16667 13.8333 9.16667C14.0101 9.16667 14.1797 9.23691 14.3047 9.36193C14.4298 9.48695 14.5 9.65652 14.5 9.83333V12.3333C14.5 12.908 14.2717 13.4591 13.8654 13.8654C13.4591 14.2717 12.908 14.5 12.3333 14.5H4.66667C4.09203 14.5 3.54093 14.2717 3.1346 13.8654C2.72827 13.4591 2.5 12.908 2.5 12.3333V4.66667C2.5 4.09203 2.72827 3.54093 3.1346 3.1346C3.54093 2.72827 4.09203 2.5 4.66667 2.5H7.16667C7.34348 2.5 7.51305 2.57024 7.63807 2.69526C7.7631 2.82029 7.83333 2.98986 7.83333 3.16667C7.83333 3.34348 7.7631 3.51305 7.63807 3.63807C7.51305 3.7631 7.34348 3.83333 7.16667 3.83333H4.66667ZM9.83333 3.83333C9.65652 3.83333 9.48695 3.7631 9.36193 3.63807C9.23691 3.51305 9.16667 3.34348 9.16667 3.16667C9.16667 2.98986 9.23691 2.82029 9.36193 2.69526C9.48695 2.57024 9.65652 2.5 9.83333 2.5H13.8333C14.0101 2.5 14.1797 2.57024 14.3047 2.69526C14.4298 2.82029 14.5 2.98986 14.5 3.16667V7.16667C14.5 7.34348 14.4298 7.51305 14.3047 7.63807C14.1797 7.7631 14.0101 7.83333 13.8333 7.83333C13.6565 7.83333 13.487 7.7631 13.3619 7.63807C13.2369 7.51305 13.1667 7.34348 13.1667 7.16667V4.776L10.3047 7.638C10.1789 7.75944 10.0105 7.82663 9.83573 7.82512C9.66093 7.8236 9.49373 7.75348 9.37012 7.62988C9.24652 7.50627 9.1764 7.33907 9.17488 7.16427C9.17337 6.98947 9.24056 6.82107 9.362 6.69533L12.224 3.83333H9.83333Z" fill="#848698"/>
</svg>
