<svg width="24" height="19" viewBox="0 0 24 19" fill="none" xmlns="http://www.w3.org/2000/svg">
<g clip-path="url(#clip0_135_14835)">
<path d="M5.45456 18.4461V9.17329L2.57878 6.54238L0 5.08241V16.8097C0 17.7151 0.733594 18.4461 1.63641 18.4461H5.45456Z" fill="#4285F4"/>
<path d="M18.5459 18.4461H22.3641C23.2696 18.4461 24.0005 17.7124 24.0005 16.8097V5.0825L21.0796 6.75472L18.5459 9.17329V18.4461Z" fill="#34A853"/>
<path d="M5.45479 9.17329L5.06348 5.55013L5.45479 2.08241L12.0002 6.99154L18.5457 2.08241L18.9834 5.36291L18.5457 9.17329L12.0002 14.0824L5.45479 9.17329Z" fill="#EA4335"/>
<path d="M18.5459 2.08241V9.17328L24.0005 5.08241V2.90056C24.0005 0.87697 21.6905 -0.276623 20.0733 0.93697L18.5459 2.08241Z" fill="#FBBC04"/>
<path d="M0 5.08242L2.50866 6.96398L5.45456 9.1733V2.08242L3.92719 0.936983C2.30719 -0.276705 0 0.876983 0 2.90048V5.08242Z" fill="#C5221F"/>
</g>
<defs>
<clipPath id="clip0_135_14835">
<rect width="24" height="18.0938" fill="white" transform="translate(0 0.441406)"/>
</clipPath>
</defs>
</svg>
