<svg width="32" height="32" viewBox="0 0 32 32" fill="none" xmlns="http://www.w3.org/2000/svg">
<g clip-path="url(#clip0_1310_2552)">
<path d="M22.023 9.43652L20.6897 10.7699M20.6897 10.7699L22.6897 12.7699L20.3563 15.1032L18.3563 13.1032M20.6897 10.7699L18.3563 13.1032M15.6163 15.8432C15.9606 16.1828 16.2342 16.5872 16.4215 17.0331C16.6088 17.4789 16.7061 17.9574 16.7077 18.4409C16.7093 18.9245 16.6153 19.4036 16.431 19.8507C16.2466 20.2978 15.9757 20.704 15.6338 21.046C15.2918 21.3879 14.8856 21.6588 14.4385 21.8431C13.9915 22.0274 13.5123 22.1215 13.0288 22.1199C12.5452 22.1183 12.0667 22.021 11.6209 21.8337C11.175 21.6464 10.7707 21.3728 10.431 21.0285C9.7631 20.337 9.39352 19.4108 9.40187 18.4494C9.41023 17.488 9.79585 16.5684 10.4757 15.8885C11.1555 15.2087 12.0752 14.8231 13.0365 14.8147C13.9979 14.8064 14.9241 15.1759 15.6157 15.8439L15.6163 15.8432ZM15.6163 15.8432L18.3563 13.1032" stroke="black" stroke-width="1.5" stroke-linecap="round" stroke-linejoin="round"/>
</g>
<defs>
<clipPath id="clip0_1310_2552">
<rect width="16" height="16" fill="white" transform="translate(8.02295 8.10315)"/>
</clipPath>
</defs>
</svg>
