<svg width="16" height="17" viewBox="0 0 16 17" fill="none" xmlns="http://www.w3.org/2000/svg">
<path d="M9.3335 6.05968H2.66683C1.9315 6.05968 1.3335 6.65768 1.3335 7.39301V14.0597C1.3335 14.795 1.9315 15.393 2.66683 15.393H9.3335C10.0688 15.393 10.6668 14.795 10.6668 14.0597V7.39301C10.6668 6.65768 10.0688 6.05968 9.3335 6.05968Z" fill="#848698"/>
<path d="M13.3335 2.05968H6.66683C6.31321 2.05968 5.97407 2.20015 5.72402 2.4502C5.47397 2.70025 5.3335 3.03939 5.3335 3.39301V4.72634H10.6668C11.0205 4.72634 11.3596 4.86682 11.6096 5.11687C11.8597 5.36692 12.0002 5.70605 12.0002 6.05968V11.393H13.3335C13.6871 11.393 14.0263 11.2525 14.2763 11.0025C14.5264 10.7524 14.6668 10.4133 14.6668 10.0597V3.39301C14.6668 3.03939 14.5264 2.70025 14.2763 2.4502C14.0263 2.20015 13.6871 2.05968 13.3335 2.05968Z" fill="#848698"/>
</svg>
