<svg width="24" height="25" viewBox="0 0 24 25" fill="none" xmlns="http://www.w3.org/2000/svg">
<g clip-path="url(#clip0_87_4504)">
<path fill-rule="evenodd" clip-rule="evenodd" d="M12.7069 16.5843C12.5193 16.7718 12.265 16.8771 11.9999 16.8771C11.7347 16.8771 11.4804 16.7718 11.2929 16.5843L5.63585 10.9273C5.54034 10.8351 5.46416 10.7247 5.41175 10.6027C5.35934 10.4807 5.33176 10.3495 5.3306 10.2167C5.32945 10.0839 5.35475 9.95227 5.40503 9.82937C5.45531 9.70648 5.52957 9.59482 5.62346 9.50093C5.71735 9.40704 5.829 9.33279 5.9519 9.2825C6.0748 9.23222 6.20648 9.20692 6.33926 9.20808C6.47204 9.20923 6.60325 9.23682 6.72526 9.28923C6.84726 9.34163 6.95761 9.41782 7.04985 9.51333L11.9999 14.4633L16.9499 9.51333C17.1385 9.33117 17.3911 9.23037 17.6533 9.23265C17.9155 9.23493 18.1663 9.3401 18.3517 9.52551C18.5371 9.71092 18.6423 9.96173 18.6445 10.2239C18.6468 10.4861 18.546 10.7387 18.3639 10.9273L12.7069 16.5843Z" fill="#848698"/>
</g>
<defs>
<clipPath id="clip0_87_4504">
<rect width="24" height="24" fill="white" transform="translate(0 0.877319)"/>
</clipPath>
</defs>
</svg>
