<svg width="21" height="20" viewBox="0 0 21 20" fill="none" xmlns="http://www.w3.org/2000/svg">
<path d="M10.6836 4.16661L10.0944 3.57745L10.6836 2.98828L11.2727 3.57745L10.6836 4.16661ZM11.5169 11.6666C11.5169 11.8876 11.4291 12.0996 11.2728 12.2559C11.1165 12.4122 10.9046 12.4999 10.6836 12.4999C10.4626 12.4999 10.2506 12.4122 10.0943 12.2559C9.93803 12.0996 9.85023 11.8876 9.85023 11.6666H11.5169ZM5.92773 7.74411L10.0944 3.57745L11.2727 4.75578L7.10607 8.92245L5.92773 7.74411ZM11.2727 3.57745L15.4394 7.74411L14.2611 8.92245L10.0944 4.75578L11.2727 3.57745ZM11.5169 4.16661V11.6666H9.85023V4.16661H11.5169Z" fill="#848698"/>
<path d="M4.8501 13.3333V14.1666C4.8501 14.6086 5.02569 15.0325 5.33825 15.3451C5.65081 15.6577 6.07474 15.8333 6.51676 15.8333H14.8501C15.2921 15.8333 15.716 15.6577 16.0286 15.3451C16.3412 15.0325 16.5168 14.6086 16.5168 14.1666V13.3333" stroke="#848698" stroke-width="2"/>
</svg>
