<svg width="16" height="17" viewBox="0 0 16 17" fill="none" xmlns="http://www.w3.org/2000/svg">
<path fill-rule="evenodd" clip-rule="evenodd" d="M8.82124 2.11335C8.9216 2.146 9.00906 2.20956 9.07109 2.29494C9.13312 2.38033 9.16654 2.48315 9.16658 2.58868V6.75535H12.6666C12.7588 6.75531 12.8493 6.78078 12.9279 6.82895C13.0066 6.87713 13.0704 6.94612 13.1123 7.02831C13.1542 7.11049 13.1725 7.20266 13.1653 7.29462C13.158 7.38658 13.1255 7.47474 13.0712 7.54935L7.73791 14.8827C7.67589 14.9681 7.58842 15.0318 7.48802 15.0644C7.38763 15.0971 7.27946 15.0972 7.17902 15.0646C7.07859 15.0321 6.99104 14.9685 6.92892 14.8832C6.86681 14.7978 6.83331 14.6949 6.83324 14.5893V10.4227H3.33324C3.24089 10.4228 3.1503 10.3974 3.07153 10.3492C2.99275 10.301 2.92887 10.2319 2.88696 10.1496C2.84505 10.0673 2.82676 9.97498 2.8341 9.88292C2.84145 9.79086 2.87415 9.70263 2.92858 9.62802L8.26191 2.29468C8.32403 2.20925 8.41162 2.14568 8.5121 2.11311C8.61259 2.08053 8.72081 2.08062 8.82124 2.11335Z" fill="#FAB216"/>
</svg>
