<svg width="16" height="17" viewBox="0 0 16 17" fill="none" xmlns="http://www.w3.org/2000/svg">
<path d="M13.4998 4.58868V10.2718C13.4998 13.1593 11.1966 15.5562 8.31226 15.5881C7.61221 15.5975 6.91737 15.4664 6.26893 15.2024C5.62049 14.9384 5.03164 14.5469 4.53727 14.0512C3.17414 12.6093 1.63414 9.08868 1.63414 9.08868C1.5664 8.97144 1.52317 8.84167 1.50709 8.70722C1.491 8.57278 1.50238 8.43647 1.54054 8.30656C1.5787 8.17664 1.64285 8.05583 1.72909 7.95145C1.81534 7.84707 1.92188 7.76129 2.04227 7.69931C2.52102 7.44931 3.11102 7.64681 3.37977 8.11306L4.69227 10.3906C4.72877 10.4561 4.78384 10.5095 4.85057 10.5438C4.91729 10.5782 4.99268 10.592 5.06727 10.5837H5.07476C5.19487 10.563 5.30366 10.5002 5.38156 10.4064C5.45947 10.3127 5.50138 10.1943 5.49977 10.0724V3.58868C5.49961 3.45321 5.52698 3.31912 5.58022 3.19455C5.63345 3.06998 5.71145 2.95752 5.80946 2.864C5.90748 2.77049 6.02348 2.69786 6.15041 2.65053C6.27735 2.60321 6.41258 2.58216 6.54789 2.58868C7.08601 2.61368 7.49976 3.07743 7.49976 3.61556V7.58868C7.49961 7.65723 7.51356 7.72507 7.54073 7.788C7.5679 7.85092 7.60773 7.90759 7.65772 7.95448C7.70772 8.00137 7.76682 8.03748 7.83136 8.06057C7.8959 8.08365 7.9645 8.09322 8.03289 8.08868C8.16146 8.07764 8.28109 8.01832 8.3677 7.92266C8.45432 7.827 8.5015 7.70209 8.49976 7.57306V2.58868C8.49961 2.45321 8.52698 2.31912 8.58022 2.19455C8.63345 2.06998 8.71145 1.95752 8.80946 1.864C8.90748 1.77049 9.02348 1.69786 9.15041 1.65053C9.27735 1.60321 9.41258 1.58216 9.54789 1.58868C10.086 1.61368 10.4998 2.07743 10.4998 2.61556V8.08868C10.4996 8.15723 10.5136 8.22507 10.5407 8.288C10.5679 8.35092 10.6077 8.40759 10.6577 8.45448C10.7077 8.50137 10.7668 8.53748 10.8314 8.56057C10.8959 8.58365 10.9645 8.59322 11.0329 8.58868C11.1615 8.57764 11.2811 8.51832 11.3677 8.42266C11.4543 8.327 11.5015 8.20209 11.4998 8.07306V4.61681C11.4998 4.07868 11.9135 3.61681 12.4516 3.58993C12.5868 3.58342 12.722 3.60442 12.8488 3.65167C12.9757 3.69893 13.0916 3.77144 13.1896 3.86482C13.2876 3.9582 13.3656 4.07051 13.4189 4.19494C13.4723 4.31936 13.4998 4.45332 13.4998 4.58868Z" fill="#EB5B00"/>
</svg>
