<svg width="32" height="33" viewBox="0 0 32 33" fill="none" xmlns="http://www.w3.org/2000/svg">
<rect y="0.821716" width="32" height="32" rx="16" fill="#8247E5"/>
<g clip-path="url(#clip0_109_8312)">
<path d="M20.0833 14.0926C19.7917 13.9259 19.4167 13.9259 19.0833 14.0926L16.75 15.4676L15.1667 16.3426L12.875 17.7176C12.5833 17.8842 12.2083 17.8842 11.875 17.7176L10.0833 16.6342C9.79167 16.4676 9.58333 16.1342 9.58333 15.7592V13.6759C9.58333 13.3426 9.75 13.0092 10.0833 12.8009L11.875 11.7592C12.1667 11.5926 12.5417 11.5926 12.875 11.7592L14.6667 12.8426C14.9583 13.0092 15.1667 13.3426 15.1667 13.7176V15.0926L16.75 14.1759V12.7592C16.75 12.4259 16.5833 12.0926 16.25 11.8842L12.9167 9.92588C12.625 9.75922 12.25 9.75922 11.9167 9.92588L8.5 11.9259C8.16667 12.0926 8 12.4259 8 12.7592V16.6759C8 17.0092 8.16667 17.3426 8.5 17.5509L11.875 19.5092C12.1667 19.6759 12.5417 19.6759 12.875 19.5092L15.1667 18.1759L16.75 17.2592L19.0417 15.9259C19.3333 15.7592 19.7083 15.7592 20.0417 15.9259L21.8333 16.9676C22.125 17.1342 22.3333 17.4676 22.3333 17.8426V19.9259C22.3333 20.2592 22.1667 20.5925 21.8333 20.8009L20.0833 21.8425C19.7917 22.0092 19.4167 22.0092 19.0833 21.8425L17.2917 20.8009C17 20.6342 16.7917 20.3009 16.7917 19.9259V18.5926L15.2083 19.5092V20.8842C15.2083 21.2176 15.375 21.5509 15.7083 21.7592L19.0833 23.7175C19.375 23.8842 19.75 23.8842 20.0833 23.7175L23.4583 21.7592C23.75 21.5926 23.9583 21.2592 23.9583 20.8842V16.9259C23.9583 16.5926 23.7917 16.2592 23.4583 16.0509L20.0833 14.0926Z" fill="white"/>
</g>
<defs>
<clipPath id="clip0_109_8312">
<rect width="16" height="13.9583" fill="white" transform="translate(8 9.84255)"/>
</clipPath>
</defs>
</svg>
