<svg width="52" height="58" viewBox="0 0 52 58" fill="none" xmlns="http://www.w3.org/2000/svg">
<path d="M27.5 2V9C27.5 9.79565 27.8161 10.5587 28.3787 11.1213C28.9413 11.6839 29.7044 12 30.5 12H37.5V27C37.5 27.7956 37.1839 28.5587 36.6213 29.1213C36.0587 29.6839 35.2956 30 34.5 30H18.5C17.7044 30 16.9413 29.6839 16.3787 29.1213C15.8161 28.5587 15.5 27.7956 15.5 27V5C15.5 4.20435 15.8161 3.44129 16.3787 2.87868C16.9413 2.31607 17.7044 2 18.5 2H27.5ZM29.5 2.117V9C29.5 9.26522 29.6054 9.51957 29.7929 9.70711C29.9804 9.89464 30.2348 10 30.5 10H37.383C37.2427 9.5114 36.9804 9.06648 36.621 8.707L30.793 2.88C30.4336 2.52019 29.9887 2.25763 29.5 2.117ZM27.5 21C27.5 20.7348 27.3946 20.4804 27.2071 20.2929C27.0196 20.1054 26.7652 20 26.5 20C26.2348 20 25.9804 20.1054 25.7929 20.2929C25.6054 20.4804 25.5 20.7348 25.5 21V25C25.5 25.2652 25.6054 25.5196 25.7929 25.7071C25.9804 25.8946 26.2348 26 26.5 26C26.7652 26 27.0196 25.8946 27.2071 25.7071C27.3946 25.5196 27.5 25.2652 27.5 25V21ZM21.5 12C21.2348 12 20.9804 12.1054 20.7929 12.2929C20.6054 12.4804 20.5 12.7348 20.5 13V25C20.5 25.2652 20.6054 25.5196 20.7929 25.7071C20.9804 25.8946 21.2348 26 21.5 26C21.7652 26 22.0196 25.8946 22.2071 25.7071C22.3946 25.5196 22.5 25.2652 22.5 25V13C22.5 12.7348 22.3946 12.4804 22.2071 12.2929C22.0196 12.1054 21.7652 12 21.5 12ZM32.5 17C32.5 16.7348 32.3946 16.4804 32.2071 16.2929C32.0196 16.1054 31.7652 16 31.5 16C31.2348 16 30.9804 16.1054 30.7929 16.2929C30.6054 16.4804 30.5 16.7348 30.5 17V25C30.5 25.2652 30.6054 25.5196 30.7929 25.7071C30.9804 25.8946 31.2348 26 31.5 26C31.7652 26 32.0196 25.8946 32.2071 25.7071C32.3946 25.5196 32.5 25.2652 32.5 25V17Z" fill="#848698"/>
<path d="M1.63634 43.088H3.40034L8.86034 51.236H8.88834V43.088H10.2323V53H8.52434L3.00834 44.852H2.98034V53H1.63634V43.088ZM13.4229 49.682C13.4229 50.018 13.4742 50.3307 13.5769 50.62C13.6796 50.9 13.8242 51.1427 14.0109 51.348C14.1976 51.544 14.4262 51.7027 14.6969 51.824C14.9676 51.936 15.2709 51.992 15.6069 51.992C15.9429 51.992 16.2462 51.936 16.5169 51.824C16.7876 51.7027 17.0162 51.544 17.2029 51.348C17.3896 51.1427 17.5342 50.9 17.6369 50.62C17.7396 50.3307 17.7909 50.018 17.7909 49.682C17.7909 49.346 17.7396 49.038 17.6369 48.758C17.5342 48.4687 17.3896 48.226 17.2029 48.03C17.0162 47.8247 16.7876 47.666 16.5169 47.554C16.2462 47.4327 15.9429 47.372 15.6069 47.372C15.2709 47.372 14.9676 47.4327 14.6969 47.554C14.4262 47.666 14.1976 47.8247 14.0109 48.03C13.8242 48.226 13.6796 48.4687 13.5769 48.758C13.4742 49.038 13.4229 49.346 13.4229 49.682ZM12.0789 49.682C12.0789 49.1967 12.1676 48.744 12.3449 48.324C12.5316 47.904 12.7836 47.5353 13.1009 47.218C13.4182 46.9007 13.7916 46.6533 14.2209 46.476C14.6502 46.2893 15.1122 46.196 15.6069 46.196C16.1016 46.196 16.5636 46.2893 16.9929 46.476C17.4222 46.6533 17.7956 46.9007 18.1129 47.218C18.4302 47.5353 18.6776 47.904 18.8549 48.324C19.0416 48.744 19.1349 49.1967 19.1349 49.682C19.1349 50.1673 19.0416 50.6247 18.8549 51.054C18.6776 51.474 18.4302 51.8427 18.1129 52.16C17.7956 52.468 17.4222 52.7153 16.9929 52.902C16.5636 53.0793 16.1016 53.168 15.6069 53.168C15.1122 53.168 14.6502 53.0793 14.2209 52.902C13.7916 52.7153 13.4182 52.468 13.1009 52.16C12.7836 51.8427 12.5316 51.474 12.3449 51.054C12.1676 50.6247 12.0789 50.1673 12.0789 49.682ZM31.1479 53H29.8879V52.048H29.8599C29.6172 52.4027 29.2812 52.678 28.8519 52.874C28.4319 53.07 27.9979 53.168 27.5499 53.168C27.0366 53.168 26.5699 53.0793 26.1499 52.902C25.7392 52.7247 25.3846 52.4773 25.0859 52.16C24.7966 51.8427 24.5726 51.474 24.4139 51.054C24.2552 50.634 24.1759 50.1767 24.1759 49.682C24.1759 49.1873 24.2552 48.73 24.4139 48.31C24.5726 47.8807 24.7966 47.512 25.0859 47.204C25.3846 46.8867 25.7392 46.6393 26.1499 46.462C26.5699 46.2847 27.0366 46.196 27.5499 46.196C28.0259 46.196 28.4739 46.2987 28.8939 46.504C29.3139 46.7 29.6359 46.9707 29.8599 47.316H29.8879V42.416H31.1479V53ZM27.7039 51.992C28.0399 51.992 28.3432 51.936 28.6139 51.824C28.8846 51.7027 29.1132 51.544 29.2999 51.348C29.4866 51.1427 29.6312 50.9 29.7339 50.62C29.8366 50.3307 29.8879 50.018 29.8879 49.682C29.8879 49.346 29.8366 49.038 29.7339 48.758C29.6312 48.4687 29.4866 48.226 29.2999 48.03C29.1132 47.8247 28.8846 47.666 28.6139 47.554C28.3432 47.4327 28.0399 47.372 27.7039 47.372C27.3679 47.372 27.0646 47.4327 26.7939 47.554C26.5232 47.666 26.2946 47.8247 26.1079 48.03C25.9212 48.226 25.7766 48.4687 25.6739 48.758C25.5712 49.038 25.5199 49.346 25.5199 49.682C25.5199 50.018 25.5712 50.3307 25.6739 50.62C25.7766 50.9 25.9212 51.1427 26.1079 51.348C26.2946 51.544 26.5232 51.7027 26.7939 51.824C27.0646 51.936 27.3679 51.992 27.7039 51.992ZM33.0285 47.176C33.3832 46.8493 33.7938 46.6067 34.2605 46.448C34.7272 46.28 35.1938 46.196 35.6605 46.196C36.1458 46.196 36.5612 46.2567 36.9065 46.378C37.2612 46.4993 37.5505 46.6627 37.7745 46.868C37.9985 47.0733 38.1618 47.3113 38.2645 47.582C38.3765 47.8433 38.4325 48.1187 38.4325 48.408V51.796C38.4325 52.0293 38.4372 52.244 38.4465 52.44C38.4558 52.636 38.4698 52.8227 38.4885 53H37.3685C37.3405 52.664 37.3265 52.328 37.3265 51.992H37.2985C37.0185 52.4213 36.6872 52.7247 36.3045 52.902C35.9218 53.0793 35.4785 53.168 34.9745 53.168C34.6665 53.168 34.3725 53.126 34.0925 53.042C33.8125 52.958 33.5652 52.832 33.3505 52.664C33.1452 52.496 32.9818 52.2907 32.8605 52.048C32.7392 51.796 32.6785 51.5067 32.6785 51.18C32.6785 50.7507 32.7718 50.3913 32.9585 50.102C33.1545 49.8127 33.4158 49.5793 33.7425 49.402C34.0785 49.2153 34.4658 49.0847 34.9045 49.01C35.3525 48.926 35.8285 48.884 36.3325 48.884H37.2565V48.604C37.2565 48.436 37.2238 48.268 37.1585 48.1C37.0932 47.932 36.9952 47.7827 36.8645 47.652C36.7338 47.512 36.5705 47.4047 36.3745 47.33C36.1785 47.246 35.9452 47.204 35.6745 47.204C35.4318 47.204 35.2172 47.2273 35.0305 47.274C34.8532 47.3207 34.6898 47.3813 34.5405 47.456C34.3912 47.5213 34.2558 47.6007 34.1345 47.694C34.0132 47.7873 33.8965 47.876 33.7845 47.96L33.0285 47.176ZM36.5845 49.808C36.2858 49.808 35.9778 49.8267 35.6605 49.864C35.3525 49.892 35.0678 49.9527 34.8065 50.046C34.5545 50.1393 34.3445 50.27 34.1765 50.438C34.0178 50.606 33.9385 50.8207 33.9385 51.082C33.9385 51.4647 34.0645 51.74 34.3165 51.908C34.5778 52.076 34.9278 52.16 35.3665 52.16C35.7118 52.16 36.0058 52.104 36.2485 51.992C36.4912 51.8707 36.6872 51.7167 36.8365 51.53C36.9858 51.3433 37.0932 51.138 37.1585 50.914C37.2238 50.6807 37.2565 50.452 37.2565 50.228V49.808H36.5845ZM43.7603 47.456H41.9543V50.466C41.9543 50.6527 41.9589 50.8393 41.9683 51.026C41.9776 51.2033 42.0103 51.3667 42.0663 51.516C42.1316 51.656 42.2249 51.7727 42.3463 51.866C42.4769 51.95 42.6636 51.992 42.9063 51.992C43.0556 51.992 43.2096 51.978 43.3683 51.95C43.5269 51.922 43.6716 51.8707 43.8023 51.796V52.944C43.6529 53.028 43.4569 53.084 43.2143 53.112C42.9809 53.1493 42.7989 53.168 42.6683 53.168C42.1829 53.168 41.8049 53.1027 41.5343 52.972C41.2729 52.832 41.0769 52.6547 40.9463 52.44C40.8249 52.2253 40.7503 51.9873 40.7223 51.726C40.7036 51.4553 40.6943 51.1847 40.6943 50.914V47.456H39.2383V46.364H40.6943V44.502H41.9543V46.364H43.7603V47.456ZM45.3579 47.176C45.7126 46.8493 46.1232 46.6067 46.5899 46.448C47.0566 46.28 47.5232 46.196 47.9899 46.196C48.4752 46.196 48.8906 46.2567 49.2359 46.378C49.5906 46.4993 49.8799 46.6627 50.1039 46.868C50.3279 47.0733 50.4912 47.3113 50.5939 47.582C50.7059 47.8433 50.7619 48.1187 50.7619 48.408V51.796C50.7619 52.0293 50.7666 52.244 50.7759 52.44C50.7852 52.636 50.7992 52.8227 50.8179 53H49.6979C49.6699 52.664 49.6559 52.328 49.6559 51.992H49.6279C49.3479 52.4213 49.0166 52.7247 48.6339 52.902C48.2512 53.0793 47.8079 53.168 47.3039 53.168C46.9959 53.168 46.7019 53.126 46.4219 53.042C46.1419 52.958 45.8946 52.832 45.6799 52.664C45.4746 52.496 45.3112 52.2907 45.1899 52.048C45.0686 51.796 45.0079 51.5067 45.0079 51.18C45.0079 50.7507 45.1012 50.3913 45.2879 50.102C45.4839 49.8127 45.7452 49.5793 46.0719 49.402C46.4079 49.2153 46.7952 49.0847 47.2339 49.01C47.6819 48.926 48.1579 48.884 48.6619 48.884H49.5859V48.604C49.5859 48.436 49.5532 48.268 49.4879 48.1C49.4226 47.932 49.3246 47.7827 49.1939 47.652C49.0632 47.512 48.8999 47.4047 48.7039 47.33C48.5079 47.246 48.2746 47.204 48.0039 47.204C47.7612 47.204 47.5466 47.2273 47.3599 47.274C47.1826 47.3207 47.0192 47.3813 46.8699 47.456C46.7206 47.5213 46.5852 47.6007 46.4639 47.694C46.3426 47.7873 46.2259 47.876 46.1139 47.96L45.3579 47.176ZM48.9139 49.808C48.6152 49.808 48.3072 49.8267 47.9899 49.864C47.6819 49.892 47.3972 49.9527 47.1359 50.046C46.8839 50.1393 46.6739 50.27 46.5059 50.438C46.3472 50.606 46.2679 50.8207 46.2679 51.082C46.2679 51.4647 46.3939 51.74 46.6459 51.908C46.9072 52.076 47.2572 52.16 47.6959 52.16C48.0412 52.16 48.3352 52.104 48.5779 51.992C48.8206 51.8707 49.0166 51.7167 49.1659 51.53C49.3152 51.3433 49.4226 51.138 49.4879 50.914C49.5532 50.6807 49.5859 50.452 49.5859 50.228V49.808H48.9139Z" fill="#848698"/>
</svg>
