<svg width="156" height="93" viewBox="0 0 156 93" fill="none" xmlns="http://www.w3.org/2000/svg">
<path d="M61.2968 60.7029H87.0216C91.1775 60.7029 93.2555 60.7029 94.8428 59.8941C96.2391 59.1826 97.3743 58.0474 98.0858 56.6512C98.8946 55.0638 98.8946 52.9858 98.8946 48.8299V21.8857C98.8946 19.7901 98.8946 18.7423 98.628 17.7749C98.3919 16.9179 98.0038 16.1103 97.482 15.3905C96.8931 14.5781 96.0749 13.9235 94.4386 12.6145L94.4386 12.6144L83.5952 3.93975C82.3898 2.97546 81.7872 2.49331 81.116 2.15045C80.5206 1.84626 79.8868 1.62394 79.2319 1.48952C78.4936 1.33801 77.7218 1.33801 76.1782 1.33801H61.2968C57.1409 1.33801 55.0629 1.33801 53.4756 2.14681C52.0793 2.85825 50.9441 3.99346 50.2326 5.38974C49.4238 6.97709 49.4238 9.05506 49.4238 13.211V48.8299C49.4238 52.9858 49.4238 55.0638 50.2326 56.6512C50.9441 58.0474 52.0793 59.1826 53.4756 59.8941C55.0629 60.7029 57.1409 60.7029 61.2968 60.7029Z" fill="url(#paint0_linear_414_6572)" style="mix-blend-mode:luminosity"/>
<path d="M61.2968 60.7029H87.0216C91.1775 60.7029 93.2555 60.7029 94.8428 59.8941C96.2391 59.1826 97.3743 58.0474 98.0858 56.6512C98.8946 55.0638 98.8946 52.9858 98.8946 48.8299V21.8857C98.8946 19.7901 98.8946 18.7423 98.628 17.7749C98.3919 16.9179 98.0038 16.1103 97.482 15.3905C96.8931 14.5781 96.0749 13.9235 94.4386 12.6145L94.4386 12.6144L83.5952 3.93975C82.3898 2.97546 81.7872 2.49331 81.116 2.15045C80.5206 1.84626 79.8868 1.62394 79.2319 1.48952C78.4936 1.33801 77.7218 1.33801 76.1782 1.33801H61.2968C57.1409 1.33801 55.0629 1.33801 53.4756 2.14681C52.0793 2.85825 50.9441 3.99346 50.2326 5.38974C49.4238 6.97709 49.4238 9.05506 49.4238 13.211V48.8299C49.4238 52.9858 49.4238 55.0638 50.2326 56.6512C50.9441 58.0474 52.0793 59.1826 53.4756 59.8941C55.0629 60.7029 57.1409 60.7029 61.2968 60.7029Z" stroke="url(#paint1_linear_414_6572)" stroke-opacity="0.25" stroke-width="0.927576"/>
<path fill-rule="evenodd" clip-rule="evenodd" d="M63.7321 5.29369C63.7321 4.78336 63.3184 4.36966 62.8081 4.36966C62.2978 4.36966 61.8841 4.78336 61.8841 5.29369V8.36432C61.8841 9.73042 60.7766 10.8379 59.4105 10.8379H56.342C55.8317 10.8379 55.418 11.2516 55.418 11.7619C55.418 12.2722 55.8317 12.6859 56.342 12.6859H59.4105C60.7766 12.6859 61.8841 13.7934 61.8841 15.1594V18.2301C61.8841 18.7404 62.2978 19.1541 62.8081 19.1541C63.3184 19.1541 63.7321 18.7404 63.7321 18.2301V15.1595C63.7321 13.7934 64.8396 12.6859 66.2057 12.6859H69.2784C69.7887 12.6859 70.2024 12.2722 70.2024 11.7619C70.2024 11.2516 69.7887 10.8379 69.2784 10.8379H66.2057C64.8396 10.8379 63.7321 9.73042 63.7321 8.36432V5.29369Z" fill="white"/>
<path d="M91.3349 33.111C91.1551 33.0465 90.9726 32.9809 90.8186 32.9409C90.6725 32.9029 90.3904 32.84 90.0879 32.9447C89.7412 33.0648 89.4686 33.3373 89.3486 33.6841C89.2438 33.9865 89.3068 34.2686 89.3447 34.4148C89.3848 34.5688 89.4503 34.7512 89.5149 34.931L94.0863 47.6659C94.1666 47.8895 94.2436 48.104 94.3195 48.2692C94.3837 48.4088 94.5296 48.7142 94.8469 48.8869C95.1938 49.0757 95.6115 49.0811 95.9633 48.9015C96.285 48.7373 96.4388 48.4358 96.5067 48.298C96.5869 48.1347 96.6695 47.9224 96.7556 47.7009L98.8133 42.4095L104.105 40.3517C104.326 40.2657 104.539 40.1831 104.702 40.1029C104.84 40.035 105.141 39.8812 105.305 39.5595C105.485 39.2077 105.479 38.79 105.291 38.4431C105.118 38.1258 104.813 37.9799 104.673 37.9157C104.508 37.8398 104.293 37.7628 104.07 37.6826L91.3349 33.111Z" fill="#121212" stroke="#F8F8F8" stroke-width="1.43633" stroke-linecap="round" stroke-linejoin="round"/>
<rect x="57.5898" y="23.9169" width="34.8359" height="6.12695" rx="3.06348" fill="white"/>
<rect x="57.5898" y="33.5424" width="22.9961" height="6.12695" rx="3.06348" fill="white"/>
<path d="M1.96031 74.7909H3.72431L9.18431 82.9389H9.21231V74.7909H10.5563V84.7029H8.84831L3.33231 76.5549H3.30431V84.7029H1.96031V74.7909ZM13.7469 81.3849C13.7469 81.7209 13.7982 82.0335 13.9009 82.3229C14.0036 82.6029 14.1482 82.8455 14.3349 83.0509C14.5216 83.2469 14.7502 83.4055 15.0209 83.5269C15.2916 83.6389 15.5949 83.6949 15.9309 83.6949C16.2669 83.6949 16.5702 83.6389 16.8409 83.5269C17.1116 83.4055 17.3402 83.2469 17.5269 83.0509C17.7136 82.8455 17.8582 82.6029 17.9609 82.3229C18.0636 82.0335 18.1149 81.7209 18.1149 81.3849C18.1149 81.0489 18.0636 80.7409 17.9609 80.4609C17.8582 80.1715 17.7136 79.9289 17.5269 79.7329C17.3402 79.5275 17.1116 79.3689 16.8409 79.2569C16.5702 79.1355 16.2669 79.0749 15.9309 79.0749C15.5949 79.0749 15.2916 79.1355 15.0209 79.2569C14.7502 79.3689 14.5216 79.5275 14.3349 79.7329C14.1482 79.9289 14.0036 80.1715 13.9009 80.4609C13.7982 80.7409 13.7469 81.0489 13.7469 81.3849ZM12.4029 81.3849C12.4029 80.8995 12.4916 80.4469 12.6689 80.0269C12.8556 79.6069 13.1076 79.2382 13.4249 78.9209C13.7422 78.6035 14.1156 78.3562 14.5449 78.1789C14.9742 77.9922 15.4362 77.8989 15.9309 77.8989C16.4256 77.8989 16.8876 77.9922 17.3169 78.1789C17.7462 78.3562 18.1196 78.6035 18.4369 78.9209C18.7542 79.2382 19.0016 79.6069 19.1789 80.0269C19.3656 80.4469 19.4589 80.8995 19.4589 81.3849C19.4589 81.8702 19.3656 82.3275 19.1789 82.7569C19.0016 83.1769 18.7542 83.5455 18.4369 83.8629C18.1196 84.1709 17.7462 84.4182 17.3169 84.6049C16.8876 84.7822 16.4256 84.8709 15.9309 84.8709C15.4362 84.8709 14.9742 84.7822 14.5449 84.6049C14.1156 84.4182 13.7422 84.1709 13.4249 83.8629C13.1076 83.5455 12.8556 83.1769 12.6689 82.7569C12.4916 82.3275 12.4029 81.8702 12.4029 81.3849ZM25.4379 82.6309C25.6805 82.9949 25.9885 83.2655 26.3619 83.4429C26.7445 83.6109 27.1365 83.6949 27.5379 83.6949C27.7619 83.6949 27.9905 83.6622 28.2239 83.5969C28.4572 83.5222 28.6672 83.4149 28.8539 83.2749C29.0499 83.1349 29.2085 82.9622 29.3299 82.7569C29.4512 82.5515 29.5119 82.3135 29.5119 82.0429C29.5119 81.6602 29.3905 81.3709 29.1479 81.1749C28.9052 80.9695 28.6019 80.8015 28.2379 80.6709C27.8832 80.5309 27.4912 80.4002 27.0619 80.2789C26.6419 80.1482 26.2499 79.9709 25.8859 79.7469C25.5312 79.5229 25.2325 79.2242 24.9899 78.8509C24.7472 78.4682 24.6259 77.9549 24.6259 77.3109C24.6259 77.0215 24.6865 76.7135 24.8079 76.3869C24.9385 76.0602 25.1392 75.7615 25.4099 75.4909C25.6805 75.2202 26.0259 74.9962 26.4459 74.8189C26.8752 74.6322 27.3885 74.5389 27.9859 74.5389C28.5272 74.5389 29.0452 74.6135 29.5399 74.7629C30.0345 74.9122 30.4685 75.2155 30.8419 75.6729L29.7499 76.6669C29.5819 76.4055 29.3439 76.1955 29.0359 76.0369C28.7279 75.8782 28.3779 75.7989 27.9859 75.7989C27.6125 75.7989 27.2999 75.8502 27.0479 75.9529C26.8052 76.0462 26.6092 76.1722 26.4599 76.3309C26.3105 76.4802 26.2032 76.6435 26.1379 76.8209C26.0819 76.9982 26.0539 77.1615 26.0539 77.3109C26.0539 77.7309 26.1752 78.0529 26.4179 78.2769C26.6605 78.5009 26.9592 78.6829 27.3139 78.8229C27.6779 78.9629 28.0699 79.0889 28.4899 79.2009C28.9192 79.3129 29.3112 79.4715 29.6659 79.6769C30.0299 79.8729 30.3332 80.1435 30.5759 80.4889C30.8185 80.8249 30.9399 81.2915 30.9399 81.8889C30.9399 82.3649 30.8465 82.7942 30.6599 83.1769C30.4825 83.5595 30.2399 83.8815 29.9319 84.1429C29.6239 84.4042 29.2599 84.6049 28.8399 84.7449C28.4199 84.8849 27.9719 84.9549 27.4959 84.9549C26.8612 84.9549 26.2592 84.8429 25.6899 84.6189C25.1205 84.3949 24.6679 84.0495 24.3319 83.5829L25.4379 82.6309ZM38.4252 84.7029H37.1652V83.6809H37.1372C36.9785 84.0355 36.7032 84.3249 36.3112 84.5489C35.9192 84.7635 35.4665 84.8709 34.9532 84.8709C34.6265 84.8709 34.3185 84.8195 34.0292 84.7169C33.7398 84.6235 33.4832 84.4742 33.2592 84.2689C33.0445 84.0635 32.8718 83.8022 32.7412 83.4849C32.6105 83.1582 32.5452 82.7755 32.5452 82.3369V78.0669H33.8052V81.9869C33.8052 82.2949 33.8472 82.5609 33.9312 82.7849C34.0152 82.9995 34.1272 83.1769 34.2672 83.3169C34.4072 83.4475 34.5658 83.5455 34.7432 83.6109C34.9298 83.6669 35.1212 83.6949 35.3172 83.6949C35.5785 83.6949 35.8212 83.6529 36.0452 83.5689C36.2692 83.4849 36.4652 83.3542 36.6332 83.1769C36.8012 82.9902 36.9318 82.7569 37.0252 82.4769C37.1185 82.1969 37.1652 81.8655 37.1652 81.4829V78.0669H38.4252V84.7029ZM40.2685 78.0669H41.5285V79.0889H41.5565C41.6405 78.9115 41.7525 78.7529 41.8925 78.6129C42.0325 78.4635 42.1865 78.3375 42.3545 78.2349C42.5318 78.1322 42.7231 78.0529 42.9285 77.9969C43.1338 77.9315 43.3391 77.8989 43.5445 77.8989C43.7498 77.8989 43.9365 77.9269 44.1045 77.9829L44.0485 79.3409C43.9458 79.3129 43.8431 79.2895 43.7405 79.2709C43.6378 79.2522 43.5351 79.2429 43.4325 79.2429C42.8165 79.2429 42.3451 79.4155 42.0185 79.7609C41.6918 80.1062 41.5285 80.6429 41.5285 81.3709V84.7029H40.2685V78.0669ZM44.5961 78.0669H46.0521L48.0401 83.1489L49.9441 78.0669H51.2881L48.6841 84.7029H47.2981L44.5961 78.0669ZM53.2901 81.8469C53.2901 82.1362 53.3508 82.4022 53.4721 82.6449C53.6028 82.8782 53.7708 83.0789 53.9761 83.2469C54.1814 83.4149 54.4194 83.5455 54.6901 83.6389C54.9608 83.7322 55.2408 83.7789 55.5301 83.7789C55.9221 83.7789 56.2628 83.6902 56.5521 83.5129C56.8414 83.3262 57.1074 83.0835 57.3501 82.7849L58.3021 83.5129C57.6021 84.4182 56.6221 84.8709 55.3621 84.8709C54.8394 84.8709 54.3634 84.7822 53.9341 84.6049C53.5141 84.4275 53.1548 84.1849 52.8561 83.8769C52.5668 83.5595 52.3428 83.1909 52.1841 82.7709C52.0254 82.3415 51.9461 81.8795 51.9461 81.3849C51.9461 80.8902 52.0301 80.4329 52.1981 80.0129C52.3754 79.5835 52.6134 79.2149 52.9121 78.9069C53.2201 78.5895 53.5841 78.3422 54.0041 78.1649C54.4241 77.9875 54.8814 77.8989 55.3761 77.8989C55.9641 77.8989 56.4588 78.0015 56.8601 78.2069C57.2708 78.4122 57.6068 78.6829 57.8681 79.0189C58.1294 79.3455 58.3161 79.7189 58.4281 80.1389C58.5494 80.5495 58.6101 80.9695 58.6101 81.3989V81.8469H53.2901ZM57.2661 80.8389C57.2568 80.5589 57.2101 80.3022 57.1261 80.0689C57.0514 79.8355 56.9348 79.6349 56.7761 79.4669C56.6174 79.2895 56.4168 79.1542 56.1741 79.0609C55.9408 78.9582 55.6654 78.9069 55.3481 78.9069C55.0401 78.9069 54.7554 78.9675 54.4941 79.0889C54.2421 79.2009 54.0274 79.3502 53.8501 79.5369C53.6728 79.7235 53.5328 79.9335 53.4301 80.1669C53.3368 80.3909 53.2901 80.6149 53.2901 80.8389H57.2661ZM59.2634 78.0669H60.7194L62.6934 83.2469H62.7214L64.5974 78.0669H65.9554L62.8054 86.1309C62.6934 86.4202 62.5767 86.6815 62.4554 86.9149C62.3341 87.1575 62.1894 87.3629 62.0214 87.5309C61.8534 87.6989 61.6481 87.8295 61.4054 87.9229C61.1721 88.0162 60.8827 88.0629 60.5374 88.0629C60.3507 88.0629 60.1594 88.0489 59.9634 88.0209C59.7767 88.0022 59.5947 87.9555 59.4174 87.8809L59.5714 86.7329C59.8234 86.8355 60.0754 86.8869 60.3274 86.8869C60.5234 86.8869 60.6867 86.8589 60.8174 86.8029C60.9574 86.7562 61.0741 86.6815 61.1674 86.5789C61.2701 86.4855 61.3541 86.3735 61.4194 86.2429C61.4847 86.1122 61.5501 85.9629 61.6154 85.7949L62.0214 84.7449L59.2634 78.0669ZM74.2759 74.7909H75.4939L79.7359 84.7029H78.1679L77.1739 82.2529H72.4559L71.4759 84.7029H69.9079L74.2759 74.7909ZM76.6839 81.0769L74.8359 76.5269H74.8079L72.9319 81.0769H76.6839ZM84.1753 79.7329C84.026 79.5462 83.8393 79.3922 83.6153 79.2709C83.4006 79.1402 83.1346 79.0749 82.8173 79.0749C82.5186 79.0749 82.2573 79.1402 82.0333 79.2709C81.8186 79.3922 81.7113 79.5742 81.7113 79.8169C81.7113 80.0129 81.772 80.1715 81.8933 80.2929C82.024 80.4142 82.1733 80.5122 82.3413 80.5869C82.5186 80.6615 82.7053 80.7175 82.9013 80.7549C83.0973 80.7922 83.2653 80.8249 83.4053 80.8529C83.676 80.9182 83.928 80.9975 84.1613 81.0909C84.404 81.1842 84.6093 81.3055 84.7773 81.4549C84.9546 81.6042 85.09 81.7862 85.1833 82.0009C85.286 82.2155 85.3373 82.4769 85.3373 82.7849C85.3373 83.1582 85.258 83.4802 85.0993 83.7509C84.9406 84.0122 84.7353 84.2269 84.4833 84.3949C84.2313 84.5629 83.942 84.6842 83.6153 84.7589C83.298 84.8335 82.976 84.8709 82.6493 84.8709C82.0986 84.8709 81.6133 84.7869 81.1933 84.6189C80.7826 84.4509 80.414 84.1429 80.0873 83.6949L81.0393 82.9109C81.2446 83.1162 81.4733 83.2982 81.7253 83.4569C81.9773 83.6155 82.2853 83.6949 82.6493 83.6949C82.808 83.6949 82.9666 83.6809 83.1253 83.6529C83.2933 83.6155 83.438 83.5642 83.5593 83.4989C83.69 83.4242 83.7926 83.3355 83.8673 83.2329C83.9513 83.1209 83.9933 82.9949 83.9933 82.8549C83.9933 82.6682 83.9326 82.5142 83.8113 82.3929C83.6993 82.2715 83.5593 82.1782 83.3913 82.1129C83.2326 82.0382 83.06 81.9822 82.8733 81.9449C82.696 81.8982 82.5373 81.8609 82.3973 81.8329C82.1266 81.7675 81.87 81.6929 81.6273 81.6089C81.3846 81.5249 81.17 81.4129 80.9833 81.2729C80.7966 81.1329 80.6473 80.9555 80.5353 80.7409C80.4233 80.5262 80.3673 80.2602 80.3673 79.9429C80.3673 79.5975 80.4373 79.2989 80.5773 79.0469C80.7266 78.7855 80.918 78.5709 81.1513 78.4029C81.394 78.2349 81.6646 78.1089 81.9633 78.0249C82.2713 77.9409 82.5793 77.8989 82.8873 77.8989C83.3353 77.8989 83.7646 77.9829 84.1753 78.1509C84.586 78.3189 84.9126 78.5989 85.1553 78.9909L84.1753 79.7329ZM90.34 79.7329C90.1907 79.5462 90.004 79.3922 89.78 79.2709C89.5653 79.1402 89.2993 79.0749 88.982 79.0749C88.6833 79.0749 88.422 79.1402 88.198 79.2709C87.9833 79.3922 87.876 79.5742 87.876 79.8169C87.876 80.0129 87.9367 80.1715 88.058 80.2929C88.1887 80.4142 88.338 80.5122 88.506 80.5869C88.6833 80.6615 88.87 80.7175 89.066 80.7549C89.262 80.7922 89.43 80.8249 89.57 80.8529C89.8407 80.9182 90.0927 80.9975 90.326 81.0909C90.5687 81.1842 90.774 81.3055 90.942 81.4549C91.1193 81.6042 91.2547 81.7862 91.348 82.0009C91.4507 82.2155 91.502 82.4769 91.502 82.7849C91.502 83.1582 91.4227 83.4802 91.264 83.7509C91.1053 84.0122 90.9 84.2269 90.648 84.3949C90.396 84.5629 90.1067 84.6842 89.78 84.7589C89.4627 84.8335 89.1407 84.8709 88.814 84.8709C88.2633 84.8709 87.778 84.7869 87.358 84.6189C86.9473 84.4509 86.5787 84.1429 86.252 83.6949L87.204 82.9109C87.4093 83.1162 87.638 83.2982 87.89 83.4569C88.142 83.6155 88.45 83.6949 88.814 83.6949C88.9727 83.6949 89.1313 83.6809 89.29 83.6529C89.458 83.6155 89.6027 83.5642 89.724 83.4989C89.8547 83.4242 89.9573 83.3355 90.032 83.2329C90.116 83.1209 90.158 82.9949 90.158 82.8549C90.158 82.6682 90.0973 82.5142 89.976 82.3929C89.864 82.2715 89.724 82.1782 89.556 82.1129C89.3973 82.0382 89.2247 81.9822 89.038 81.9449C88.8607 81.8982 88.702 81.8609 88.562 81.8329C88.2913 81.7675 88.0347 81.6929 87.792 81.6089C87.5493 81.5249 87.3347 81.4129 87.148 81.2729C86.9613 81.1329 86.812 80.9555 86.7 80.7409C86.588 80.5262 86.532 80.2602 86.532 79.9429C86.532 79.5975 86.602 79.2989 86.742 79.0469C86.8913 78.7855 87.0827 78.5709 87.316 78.4029C87.5587 78.2349 87.8293 78.1089 88.128 78.0249C88.436 77.9409 88.744 77.8989 89.052 77.8989C89.5 77.8989 89.9293 77.9829 90.34 78.1509C90.7507 78.3189 91.0773 78.5989 91.32 78.9909L90.34 79.7329ZM93.0747 78.0669H94.3347V84.7029H93.0747V78.0669ZM92.7807 75.6869C92.7807 75.4349 92.8694 75.2202 93.0467 75.0429C93.2334 74.8562 93.4527 74.7629 93.7047 74.7629C93.9567 74.7629 94.1714 74.8562 94.3487 75.0429C94.5354 75.2202 94.6287 75.4349 94.6287 75.6869C94.6287 75.9389 94.5354 76.1582 94.3487 76.3449C94.1714 76.5222 93.9567 76.6109 93.7047 76.6109C93.4527 76.6109 93.2334 76.5222 93.0467 76.3449C92.8694 76.1582 92.7807 75.9389 92.7807 75.6869ZM102.934 84.6469C102.934 85.1509 102.845 85.6082 102.668 86.0189C102.5 86.4389 102.257 86.7982 101.94 87.0969C101.623 87.4049 101.24 87.6429 100.792 87.8109C100.344 87.9789 99.8493 88.0629 99.308 88.0629C98.6733 88.0629 98.09 87.9742 97.558 87.7969C97.0353 87.6195 96.536 87.3115 96.06 86.8729L96.914 85.8089C97.2407 86.1635 97.5953 86.4295 97.978 86.6069C98.3607 86.7935 98.7947 86.8869 99.28 86.8869C99.7467 86.8869 100.134 86.8169 100.442 86.6769C100.75 86.5462 100.993 86.3735 101.17 86.1589C101.357 85.9442 101.487 85.6969 101.562 85.4169C101.637 85.1462 101.674 84.8709 101.674 84.5909V83.6109H101.632C101.389 84.0122 101.058 84.3109 100.638 84.5069C100.227 84.6935 99.7933 84.7869 99.336 84.7869C98.8507 84.7869 98.398 84.7029 97.978 84.5349C97.5673 84.3575 97.2127 84.1195 96.914 83.8209C96.6153 83.5129 96.382 83.1535 96.214 82.7429C96.046 82.3229 95.962 81.8702 95.962 81.3849C95.962 80.8995 96.0413 80.4469 96.2 80.0269C96.3587 79.5975 96.5827 79.2242 96.872 78.9069C97.1707 78.5895 97.5253 78.3422 97.936 78.1649C98.356 77.9875 98.8227 77.8989 99.336 77.8989C99.784 77.8989 100.218 77.9969 100.638 78.1929C101.067 78.3889 101.403 78.6642 101.646 79.0189H101.674V78.0669H102.934V84.6469ZM99.49 79.0749C99.154 79.0749 98.8507 79.1355 98.58 79.2569C98.3093 79.3689 98.0807 79.5275 97.894 79.7329C97.7073 79.9289 97.5627 80.1715 97.46 80.4609C97.3573 80.7409 97.306 81.0489 97.306 81.3849C97.306 82.0569 97.502 82.5982 97.894 83.0089C98.286 83.4102 98.818 83.6109 99.49 83.6109C100.162 83.6109 100.694 83.4102 101.086 83.0089C101.478 82.5982 101.674 82.0569 101.674 81.3849C101.674 81.0489 101.623 80.7409 101.52 80.4609C101.417 80.1715 101.273 79.9289 101.086 79.7329C100.899 79.5275 100.671 79.3689 100.4 79.2569C100.129 79.1355 99.826 79.0749 99.49 79.0749ZM104.787 78.0669H106.047V79.0889H106.075C106.233 78.7342 106.509 78.4495 106.901 78.2349C107.293 78.0109 107.745 77.8989 108.259 77.8989C108.576 77.8989 108.879 77.9502 109.169 78.0529C109.467 78.1462 109.724 78.2955 109.939 78.5009C110.163 78.7062 110.34 78.9722 110.471 79.2989C110.601 79.6162 110.667 79.9942 110.667 80.4329V84.7029H109.407V80.7829C109.407 80.4749 109.365 80.2135 109.281 79.9989C109.197 79.7749 109.085 79.5975 108.945 79.4669C108.805 79.3269 108.641 79.2289 108.455 79.1729C108.277 79.1075 108.091 79.0749 107.895 79.0749C107.633 79.0749 107.391 79.1169 107.167 79.2009C106.943 79.2849 106.747 79.4202 106.579 79.6069C106.411 79.7842 106.28 80.0129 106.187 80.2929C106.093 80.5729 106.047 80.9042 106.047 81.2869V84.7029H104.787V78.0669ZM113.462 81.8469C113.462 82.1362 113.523 82.4022 113.644 82.6449C113.775 82.8782 113.943 83.0789 114.148 83.2469C114.353 83.4149 114.591 83.5455 114.862 83.6389C115.133 83.7322 115.413 83.7789 115.702 83.7789C116.094 83.7789 116.435 83.6902 116.724 83.5129C117.013 83.3262 117.279 83.0835 117.522 82.7849L118.474 83.5129C117.774 84.4182 116.794 84.8709 115.534 84.8709C115.011 84.8709 114.535 84.7822 114.106 84.6049C113.686 84.4275 113.327 84.1849 113.028 83.8769C112.739 83.5595 112.515 83.1909 112.356 82.7709C112.197 82.3415 112.118 81.8795 112.118 81.3849C112.118 80.8902 112.202 80.4329 112.37 80.0129C112.547 79.5835 112.785 79.2149 113.084 78.9069C113.392 78.5895 113.756 78.3422 114.176 78.1649C114.596 77.9875 115.053 77.8989 115.548 77.8989C116.136 77.8989 116.631 78.0015 117.032 78.2069C117.443 78.4122 117.779 78.6829 118.04 79.0189C118.301 79.3455 118.488 79.7189 118.6 80.1389C118.721 80.5495 118.782 80.9695 118.782 81.3989V81.8469H113.462ZM117.438 80.8389C117.429 80.5589 117.382 80.3022 117.298 80.0689C117.223 79.8355 117.107 79.6349 116.948 79.4669C116.789 79.2895 116.589 79.1542 116.346 79.0609C116.113 78.9582 115.837 78.9069 115.52 78.9069C115.212 78.9069 114.927 78.9675 114.666 79.0889C114.414 79.2009 114.199 79.3502 114.022 79.5369C113.845 79.7235 113.705 79.9335 113.602 80.1669C113.509 80.3909 113.462 80.6149 113.462 80.8389H117.438ZM126.883 84.7029H125.623V83.7509H125.595C125.353 84.1055 125.017 84.3809 124.587 84.5769C124.167 84.7729 123.733 84.8709 123.285 84.8709C122.772 84.8709 122.305 84.7822 121.885 84.6049C121.475 84.4275 121.12 84.1802 120.821 83.8629C120.532 83.5455 120.308 83.1769 120.149 82.7569C119.991 82.3369 119.911 81.8795 119.911 81.3849C119.911 80.8902 119.991 80.4329 120.149 80.0129C120.308 79.5835 120.532 79.2149 120.821 78.9069C121.12 78.5895 121.475 78.3422 121.885 78.1649C122.305 77.9875 122.772 77.8989 123.285 77.8989C123.761 77.8989 124.209 78.0015 124.629 78.2069C125.049 78.4029 125.371 78.6735 125.595 79.0189H125.623V74.1189H126.883V84.7029ZM123.439 83.6949C123.775 83.6949 124.079 83.6389 124.349 83.5269C124.62 83.4055 124.849 83.2469 125.035 83.0509C125.222 82.8455 125.367 82.6029 125.469 82.3229C125.572 82.0335 125.623 81.7209 125.623 81.3849C125.623 81.0489 125.572 80.7409 125.469 80.4609C125.367 80.1715 125.222 79.9289 125.035 79.7329C124.849 79.5275 124.62 79.3689 124.349 79.2569C124.079 79.1355 123.775 79.0749 123.439 79.0749C123.103 79.0749 122.8 79.1355 122.529 79.2569C122.259 79.3689 122.03 79.5275 121.843 79.7329C121.657 79.9289 121.512 80.1715 121.409 80.4609C121.307 80.7409 121.255 81.0489 121.255 81.3849C121.255 81.7209 121.307 82.0335 121.409 82.3229C121.512 82.6029 121.657 82.8455 121.843 83.0509C122.03 83.2469 122.259 83.4055 122.529 83.5269C122.8 83.6389 123.103 83.6949 123.439 83.6949ZM131.778 78.0669H133.234L135.208 83.2469H135.236L137.112 78.0669H138.47L135.32 86.1309C135.208 86.4202 135.092 86.6815 134.97 86.9149C134.849 87.1575 134.704 87.3629 134.536 87.5309C134.368 87.6989 134.163 87.8295 133.92 87.9229C133.687 88.0162 133.398 88.0629 133.052 88.0629C132.866 88.0629 132.674 88.0489 132.478 88.0209C132.292 88.0022 132.11 87.9555 131.932 87.8809L132.086 86.7329C132.338 86.8355 132.59 86.8869 132.842 86.8869C133.038 86.8869 133.202 86.8589 133.332 86.8029C133.472 86.7562 133.589 86.6815 133.682 86.5789C133.785 86.4855 133.869 86.3735 133.934 86.2429C134 86.1122 134.065 85.9629 134.13 85.7949L134.536 84.7449L131.778 78.0669ZM140.472 81.8469C140.472 82.1362 140.533 82.4022 140.654 82.6449C140.785 82.8782 140.953 83.0789 141.158 83.2469C141.364 83.4149 141.602 83.5455 141.872 83.6389C142.143 83.7322 142.423 83.7789 142.712 83.7789C143.104 83.7789 143.445 83.6902 143.734 83.5129C144.024 83.3262 144.29 83.0835 144.532 82.7849L145.484 83.5129C144.784 84.4182 143.804 84.8709 142.544 84.8709C142.022 84.8709 141.546 84.7822 141.116 84.6049C140.696 84.4275 140.337 84.1849 140.038 83.8769C139.749 83.5595 139.525 83.1909 139.366 82.7709C139.208 82.3415 139.128 81.8795 139.128 81.3849C139.128 80.8902 139.212 80.4329 139.38 80.0129C139.558 79.5835 139.796 79.2149 140.094 78.9069C140.402 78.5895 140.766 78.3422 141.186 78.1649C141.606 77.9875 142.064 77.8989 142.558 77.8989C143.146 77.8989 143.641 78.0015 144.042 78.2069C144.453 78.4122 144.789 78.6829 145.05 79.0189C145.312 79.3455 145.498 79.7189 145.61 80.1389C145.732 80.5495 145.792 80.9695 145.792 81.3989V81.8469H140.472ZM144.448 80.8389C144.439 80.5589 144.392 80.3022 144.308 80.0689C144.234 79.8355 144.117 79.6349 143.958 79.4669C143.8 79.2895 143.599 79.1542 143.356 79.0609C143.123 78.9582 142.848 78.9069 142.53 78.9069C142.222 78.9069 141.938 78.9675 141.676 79.0889C141.424 79.2009 141.21 79.3502 141.032 79.5369C140.855 79.7235 140.715 79.9335 140.612 80.1669C140.519 80.3909 140.472 80.6149 140.472 80.8389H144.448ZM150.8 79.1589H148.994V82.1689C148.994 82.3555 148.998 82.5422 149.008 82.7289C149.017 82.9062 149.05 83.0695 149.106 83.2189C149.171 83.3589 149.264 83.4755 149.386 83.5689C149.516 83.6529 149.703 83.6949 149.946 83.6949C150.095 83.6949 150.249 83.6809 150.408 83.6529C150.566 83.6249 150.711 83.5735 150.842 83.4989V84.6469C150.692 84.7309 150.496 84.7869 150.254 84.8149C150.02 84.8522 149.838 84.8709 149.708 84.8709C149.222 84.8709 148.844 84.8055 148.574 84.6749C148.312 84.5349 148.116 84.3575 147.986 84.1429C147.864 83.9282 147.79 83.6902 147.762 83.4289C147.743 83.1582 147.734 82.8875 147.734 82.6169V79.1589H146.278V78.0669H147.734V76.2049H148.994V78.0669H150.8V79.1589ZM154.007 81.8469H152.663V74.7909H154.007V81.8469ZM152.439 83.8629C152.439 83.6109 152.528 83.3962 152.705 83.2189C152.892 83.0322 153.111 82.9389 153.363 82.9389C153.615 82.9389 153.83 83.0322 154.007 83.2189C154.194 83.3962 154.287 83.6109 154.287 83.8629C154.287 84.1149 154.194 84.3342 154.007 84.5209C153.83 84.6982 153.615 84.7869 153.363 84.7869C153.111 84.7869 152.892 84.6982 152.705 84.5209C152.528 84.3342 152.439 84.1149 152.439 83.8629Z" fill="#848698"/>
<defs>
<linearGradient id="paint0_linear_414_6572" x1="74.1592" y1="1.33801" x2="74.1592" y2="60.7029" gradientUnits="userSpaceOnUse">
<stop stop-color="#BCBED4"/>
<stop offset="1" stop-color="#EEEFF9"/>
</linearGradient>
<linearGradient id="paint1_linear_414_6572" x1="74.1592" y1="1.33801" x2="103.404" y2="62.8562" gradientUnits="userSpaceOnUse">
<stop stop-color="white" stop-opacity="0.4"/>
<stop offset="0.4" stop-color="white" stop-opacity="0.01"/>
<stop offset="0.6" stop-color="white" stop-opacity="0.01"/>
<stop offset="1" stop-color="white" stop-opacity="0.1"/>
</linearGradient>
</defs>
</svg>
