<svg width="32" height="32" viewBox="0 0 32 32" fill="none" xmlns="http://www.w3.org/2000/svg">
<g clip-path="url(#clip0_1057_12133)">
<path d="M20.3114 12.8999C20.3114 18.7332 22.8114 20.3999 22.8114 20.3999H7.8114C7.8114 20.3999 10.3114 18.7332 10.3114 12.8999C10.3114 11.5738 10.8382 10.3021 11.7759 9.36437C12.7135 8.42669 13.9853 7.8999 15.3114 7.8999" stroke="black" stroke-width="1.5" stroke-linecap="round" stroke-linejoin="round"/>
<path d="M16.9449 9.37169C17.0723 9.49957 17.2304 9.56351 17.4191 9.56351H18.7512V10.8956C18.7512 11.0843 18.8151 11.2424 18.943 11.3698C19.0709 11.4973 19.229 11.5612 19.4172 11.5616C19.6055 11.5621 19.7636 11.4984 19.8915 11.3705C20.0193 11.2426 20.0833 11.0843 20.0833 10.8956V9.56351H21.4154C21.6041 9.5644 21.7622 9.50068 21.8896 9.37236C22.017 9.24403 22.081 9.08573 22.0814 8.89746C22.0819 8.7092 22.0182 8.55112 21.8903 8.42324C21.7624 8.29536 21.6041 8.23142 21.4154 8.23142H20.0833V6.89933C20.0842 6.7115 20.0205 6.55343 19.8921 6.4251C19.7638 6.29678 19.6055 6.23283 19.4172 6.23328C19.229 6.23372 19.0709 6.29766 18.943 6.4251C18.8151 6.55254 18.7512 6.71061 18.7512 6.89933V8.23142H17.4191C17.2313 8.23142 17.0732 8.29536 16.9449 8.42324C16.8166 8.55112 16.7526 8.7092 16.7531 8.89746C16.7535 9.08573 16.8174 9.24381 16.9449 9.37169Z" fill="black"/>
<path d="M16.7531 23.7333C16.6066 23.9858 16.3963 24.1955 16.1433 24.3412C15.8903 24.487 15.6034 24.5637 15.3114 24.5637C15.0194 24.5637 14.7326 24.487 14.4796 24.3412C14.2265 24.1955 14.0163 23.9858 13.8698 23.7333" stroke="black" stroke-width="1.5" stroke-linecap="round" stroke-linejoin="round"/>
</g>
<defs>
<clipPath id="clip0_1057_12133">
<rect width="20" height="20" fill="white" transform="translate(5.3114 6.23328)"/>
</clipPath>
</defs>
</svg>
