<svg width="24" height="25" viewBox="0 0 24 25" fill="none" xmlns="http://www.w3.org/2000/svg">
<path d="M20.2198 17.4973C20.2198 18.3473 19.5298 19.0373 18.6798 19.0373H5.31979C4.46979 19.0373 3.77979 18.3473 3.77979 17.4973C3.77979 16.6473 4.46979 15.9573 5.31979 15.9573H5.82977V10.8173C5.82977 7.41734 8.58979 4.64734 11.9998 4.64734C13.6998 4.64734 15.2398 5.33734 16.3598 6.45734C17.4798 7.56734 18.1698 9.10734 18.1698 10.8173V15.9573H18.6798C19.5298 15.9573 20.2198 16.6473 20.2198 17.4973Z" stroke="white" stroke-width="1.5" stroke-linecap="round" stroke-linejoin="round"/>
<path d="M12 4.65732V3.62732" stroke="white" stroke-width="1.5" stroke-linecap="round" stroke-linejoin="round"/>
<path d="M15.0799 19.0473C15.0799 20.7573 13.6999 22.1273 11.9999 22.1273C10.2999 22.1273 8.91992 20.7473 8.91992 19.0473H15.0799Z" stroke="white" stroke-width="1.5" stroke-linecap="round" stroke-linejoin="round"/>
</svg>
