<svg width="16" height="17" viewBox="0 0 16 17" fill="none" xmlns="http://www.w3.org/2000/svg">
<path d="M7.99951 7.94816C8.4275 7.94816 8.79401 7.7959 9.09905 7.49138C9.40409 7.18686 9.55634 6.82035 9.55583 6.39185C9.55531 5.96334 9.40305 5.59709 9.09905 5.29309C8.79505 4.98909 8.42854 4.83657 7.99951 4.83553C7.57049 4.83449 7.20423 4.98701 6.90075 5.29309C6.59727 5.59916 6.44475 5.96542 6.4432 6.39185C6.44164 6.81828 6.59416 7.18479 6.90075 7.49138C7.20735 7.79798 7.5736 7.95024 7.99951 7.94816ZM4.10872 15.7297V14.1734H7.22135V11.7611C6.58586 11.6185 6.01858 11.3495 5.51952 10.9542C5.02046 10.5589 4.65395 10.0627 4.41999 9.46557C3.44729 9.34884 2.6336 8.92423 1.97891 8.19172C1.32422 7.45922 0.996613 6.59987 0.996094 5.61369V4.83553C0.996094 4.40754 1.14861 4.04129 1.45365 3.73677C1.75869 3.43225 2.12494 3.27973 2.55241 3.27922H4.10872V1.7229H11.8903V3.27922H13.4466C13.8746 3.27922 14.2411 3.43173 14.5462 3.73677C14.8512 4.04181 15.0034 4.40806 15.0029 4.83553V5.61369C15.0029 6.59935 14.6753 7.4587 14.0201 8.19172C13.3649 8.92475 12.5512 9.34936 11.579 9.46557C11.3456 10.0622 10.9793 10.5584 10.4803 10.9542C9.98122 11.35 9.41368 11.619 8.77767 11.7611V14.1734H11.8903V15.7297H4.10872ZM4.10872 7.79253V4.83553H2.55241V5.61369C2.55241 6.10652 2.69507 6.55085 2.9804 6.94667C3.26572 7.34249 3.64183 7.62445 4.10872 7.79253ZM11.8903 7.79253C12.3572 7.62393 12.7333 7.34172 13.0186 6.94589C13.304 6.55007 13.4466 6.106 13.4466 5.61369V4.83553H11.8903V7.79253Z" fill="#EB5B00"/>
</svg>
