<svg width="24" height="24" viewBox="0 0 24 24" fill="none" xmlns="http://www.w3.org/2000/svg">
<path d="M20.9963 21L16.6533 16.657M16.6533 16.657C17.3962 15.9141 17.9855 15.0322 18.3875 14.0616C18.7896 13.0909 18.9965 12.0506 18.9965 11C18.9965 9.94942 18.7896 8.90911 18.3875 7.93848C17.9855 6.96785 17.3962 6.08591 16.6533 5.34302C15.9104 4.60014 15.0285 4.01084 14.0578 3.6088C13.0872 3.20675 12.0469 2.99982 10.9963 2.99982C9.9457 2.99982 8.90538 3.20675 7.93475 3.6088C6.96412 4.01084 6.08219 4.60014 5.3393 5.34302C3.83897 6.84335 2.99609 8.87824 2.99609 11C2.99609 13.1218 3.83897 15.1567 5.3393 16.657C6.83963 18.1574 8.87451 19.0002 10.9963 19.0002C13.1181 19.0002 15.153 18.1574 16.6533 16.657Z" stroke="black" stroke-width="2" stroke-linecap="round" stroke-linejoin="round"/>
</svg>
